<svg xmlns="http://www.w3.org/2000/svg" width="32" height="32"><g clip-path="url(#clip0)"><path d="M16.0002 30.09C23.7795 30.09 30.0859 23.7836 30.0859 16.0043C30.0859 8.22494 23.7795 1.91855 16.0002 1.91855C8.22088 1.91855 1.91449 8.22494 1.91449 16.0043C1.91449 23.7836 8.22088 30.09 16.0002 30.09Z" fill="white"/><path d="M10.3743 16.3564C10.0366 16.0492 9.55652 15.8607 8.9342 15.7909C9.46194 15.713 9.87358 15.5205 10.1691 15.2136C10.4647 14.9067 10.6124 14.4927 10.6124 13.9717C10.6124 13.2802 10.338 12.7478 9.78914 12.3746C9.38806 12.1014 8.86939 11.9284 8.23315 11.8556V10.8835H7.04731V11.815H6.389V10.8835H5.20094V11.815H4.25861V19.9766H5.20094V20.8987H6.389V19.9766H7.04731V20.8987H8.23505V19.9529C8.98233 19.8872 9.58269 19.6873 10.0361 19.3531C10.5995 18.9375 10.8813 18.3721 10.8813 17.6569C10.8813 17.0977 10.7123 16.6642 10.3743 16.3564ZM6.40388 13.4356H7.52323C7.81876 13.4356 8.05002 13.5095 8.217 13.6573C8.38398 13.8051 8.46757 14.0037 8.46778 14.2532C8.46778 14.5021 8.38419 14.7003 8.217 14.8479C8.04981 14.9954 7.81855 15.0693 7.52323 15.0695H6.40388V13.4356ZM8.41522 18.122C8.24043 18.2698 7.99767 18.3437 7.68693 18.3437H6.40388V16.6654H7.68662C7.99756 16.6654 8.24032 16.7393 8.4149 16.8871C8.58948 17.0349 8.67698 17.2409 8.6774 17.5052C8.67761 17.7691 8.59022 17.9749 8.41522 18.1226V18.122Z" fill="#FF9415"/><path d="M16.2798 12.1634C15.8126 11.9312 15.2723 11.815 14.6589 11.815H11.2308V19.9766H13.3764V17.4583H14.6589C15.2731 17.4583 15.8135 17.3417 16.2798 17.1084C16.7461 16.8752 17.1075 16.5467 17.364 16.123C17.6204 15.6998 17.7487 15.2042 17.7487 14.6364C17.7487 14.0685 17.6204 13.5724 17.364 13.1481C17.1049 12.7223 16.7284 12.3804 16.2798 12.1634ZM15.2709 15.4248C15.0727 15.6148 14.8026 15.7098 14.4606 15.7098H13.3764V13.5639H14.4606C14.8026 13.5639 15.0727 13.6589 15.2709 13.8489C15.4692 14.0389 15.5683 14.3011 15.5683 14.6357C15.5683 14.9705 15.4692 15.2336 15.2709 15.4248Z" fill="#FF9415"/><path d="M22.0744 13.9603H21.7828C21.3633 13.9603 21.0213 14.0342 20.7568 14.182C20.4923 14.3297 20.2707 14.5514 20.0919 14.8469L19.9288 13.9603H18.0751V19.9766H20.0922V17.085C20.0922 16.1912 20.5003 15.7442 21.3166 15.744H22.0744V13.9603Z" fill="#FF9415"/><path d="M27.0474 14.2691C26.5538 14.0157 25.9766 13.8891 25.3156 13.8891C24.6547 13.8891 24.0775 14.0157 23.5842 14.2691C23.1052 14.5079 22.7076 14.8833 22.4417 15.3479C22.173 15.814 22.0386 16.3542 22.0386 16.9685C22.0386 17.5828 22.1728 18.123 22.4411 18.5891C22.707 19.0538 23.1048 19.4293 23.5842 19.6679C24.0777 19.9212 24.6549 20.0479 25.3156 20.0479C25.9763 20.0479 26.5536 19.9212 27.0474 19.6679C27.5264 19.4292 27.9239 19.0539 28.1898 18.5894C28.4588 18.1229 28.5932 17.5826 28.5932 16.9685C28.5932 16.3544 28.4591 15.8142 28.1908 15.3479C27.9245 14.8832 27.5267 14.5078 27.0474 14.2691V14.2691ZM26.2136 18.0353C25.9958 18.3033 25.6964 18.4375 25.3156 18.4377C24.9348 18.4379 24.6356 18.3038 24.4179 18.0353C24.2005 17.767 24.0917 17.4114 24.0915 16.9685C24.0912 16.5256 24.2001 16.17 24.4179 15.9017C24.6353 15.6334 24.9346 15.4992 25.3156 15.4992C25.6966 15.4992 25.996 15.6334 26.2136 15.9017C26.4311 16.1698 26.5399 16.5254 26.5401 16.9685C26.5403 17.4116 26.4315 17.7672 26.2136 18.0353Z" fill="#FF9415"/><path d="M16.0001 0.171951C7.25592 0.171951 0.167786 7.26009 0.167786 16.0043C0.167786 24.7485 7.25592 31.8366 16.0001 31.8366C24.7443 31.8366 31.8325 24.7482 31.8325 16.0043C31.8325 7.2604 24.744 0.171951 16.0001 0.171951ZM25.8092 25.8134C23.3763 28.239 20.1275 29.672 16.6957 29.8331C13.264 29.9942 9.89519 28.8718 7.24578 26.6847C4.59637 24.4976 2.85615 21.4024 2.3642 18.0023C1.87226 14.6022 2.66383 11.1407 4.58469 8.29237C6.50554 5.44402 9.41807 3.41285 12.7547 2.59464C16.0914 1.77644 19.6132 2.22983 22.6338 3.86645C25.6545 5.50307 27.9576 8.20569 29.0944 11.4477C30.2312 14.6897 30.1202 18.2388 28.7831 21.4034C28.0865 23.052 27.0765 24.5496 25.8092 25.8134V25.8134Z" fill="#FF9415"/></g><defs><clipPath id="clip0"><rect width="32" height="32" fill="white" transform="translate(0 0.00411987)"/></clipPath></defs></svg>
