<svg xmlns="http://www.w3.org/2000/svg" fill="none" viewBox="0 0 28 28"><circle cx="14" cy="14" r="14" fill="url(#a)"/><path fill="#fff" d="M5.333 12.12c0 1.46.511 2.554 1.533 3.278.632.447 1.35.67 2.153.67 1.194 0 2.096-.44 2.704-1.322.138-.205.247-.41.327-.616l-.447-.163c-.425.954-1.126 1.48-2.102 1.576a2.108 2.108 0 0 1-.275.018c-.815 0-1.453-.428-1.912-1.286-.345-.652-.517-1.425-.517-2.318 0-1.582.396-2.639 1.189-3.17.333-.218.7-.326 1.102-.326.62 0 .993.253 1.12.76.022.097.051.248.086.453.069.483.195.785.378.906.115.06.242.097.38.109.39.024.637-.145.74-.508a.905.905 0 0 0 .034-.235c0-.616-.373-1.123-1.119-1.522a3.644 3.644 0 0 0-1.722-.416c-1.539 0-2.613.658-3.221 1.974-.287.628-.43 1.34-.43 2.138Z"/><path fill="#fff" d="M17.65 21.442c-1.046 0-1.807-.254-2.287-.763-.478-.508-.717-1.055-.717-1.643 0-.216.04-.396.125-.54a.917.917 0 0 1 .341-.347c.146-.085.323-.127.533-.127.213 0 .39.042.533.127.146.086.26.201.341.346.085.148.126.328.126.541 0 .26-.062.47-.184.636a.859.859 0 0 1-.434.322c.145.204.373.345.684.431.312.092.624.136.936.136.434 0 .824-.118 1.177-.355.35-.236.609-.588.775-1.049.166-.464.25-.987.25-1.575 0-.639-.093-1.182-.276-1.635-.178-.458-.443-.795-.793-1.016a2.121 2.121 0 0 0-1.133-.331c-.268 0-.6.112-1.002.34l-.735.372v-.372l3.304-4.47h-4.568v4.638c0 .384.084.7.25.949.166.248.423.372.77.372.268 0 .521-.091.766-.272.248-.183.46-.405.635-.659a.238.238 0 0 1 .084-.11.164.164 0 0 1 .108-.04c.061 0 .134.029.216.094a.459.459 0 0 1 .116.313c-.008.08-.023.16-.04.237-.19.428-.452.756-.784.981-.326.222-.708.34-1.101.34-.99 0-1.676-.198-2.054-.591-.38-.396-.568-.931-.568-1.608v-4.64h-2.337V9.61h2.337V7.645l-.534-.54v-.44h1.553l.583.303v2.64l6.04-.015.6.609-3.703 3.756c.224-.091.46-.147.702-.168.399 0 .85.13 1.352.39.506.254.894.603 1.168 1.05.274.44.448.862.524 1.27a5.4 5.4 0 0 1 .125 1.085c0 .721-.151 1.395-.451 2.015-.3.621-.758 1.082-1.37 1.39a4.466 4.466 0 0 1-1.983.452Z"/><defs><linearGradient id="a" x1="-1.206" x2="29.166" y1="-10.235" y2="-9.971" gradientUnits="userSpaceOnUse"><stop offset=".123" stop-color="#0F62FF"/><stop offset="1" stop-color="#6B5BD2"/></linearGradient></defs></svg>