<svg xmlns="http://www.w3.org/2000/svg" width="32" height="33"><g clip-path="url(#clip0)"><circle cx="16" cy="16" r="16" fill="white"/><path d="M16 1.47568C19.8518 1.47675 23.5455 3.00733 26.2691 5.73094C28.9927 8.45454 30.5233 12.1482 30.5243 16C30.5233 19.8518 28.9927 23.5455 26.2691 26.2691C23.5455 28.9927 19.8518 30.5232 16 30.5243C12.1482 30.5232 8.45455 28.9927 5.73094 26.2691C3.00734 23.5455 1.47676 19.8518 1.47569 16C1.47676 12.1482 3.00734 8.45454 5.73094 5.73094C8.45455 3.00733 12.1482 1.47675 16 1.47568V1.47568ZM16 0C12.8355 0 9.74207 0.938383 7.11088 2.69649C4.4797 4.45459 2.42894 6.95345 1.21793 9.87706C0.00693258 12.8007 -0.309921 16.0177 0.307443 19.1214C0.924806 22.2251 2.44866 25.0761 4.6863 27.3137C6.92394 29.5513 9.77486 31.0752 12.8786 31.6926C15.9823 32.3099 19.1993 31.9931 22.1229 30.7821C25.0466 29.5711 27.5454 27.5203 29.3035 24.8891C31.0616 22.2579 32 19.1645 32 16C31.9992 11.7568 30.3132 7.68759 27.3128 4.68718C24.3124 1.68677 20.2432 0.000803919 16 0V0Z" fill="#00A651"/><path d="M11.6235 18.4763C11.2637 19.1192 10.727 19.6454 10.0771 19.9924C9.39987 20.3563 8.61149 20.5382 7.70183 20.5382H4.46747V11.9773H7.70183C8.6216 11.9773 9.42008 12.1592 10.0872 12.513C10.7359 12.8523 11.2729 13.3717 11.6336 14.0088C11.9975 14.6557 12.1693 15.3936 12.1693 16.2325C12.1771 17.0142 11.9895 17.7855 11.6235 18.4763V18.4763ZM9.38976 18.0518C9.83449 17.6273 10.0568 17.0208 10.0568 16.2527C10.0568 15.4845 9.83449 14.8781 9.38976 14.4536C8.94504 14.0291 8.31838 13.8168 7.50979 13.8168H6.52937V18.7088H7.50979C8.31838 18.6886 8.94504 18.4763 9.38976 18.0518Z" fill="#00A651"/><path d="M17.7991 14.12C18.3194 14.3946 18.7507 14.8118 19.0423 15.3228C19.3411 15.89 19.4972 16.5213 19.4972 17.1624C19.4972 17.8034 19.3411 18.4348 19.0423 19.0019C18.7535 19.515 18.3215 19.933 17.7991 20.2047C17.2433 20.4906 16.6249 20.6331 16 20.6191C15.3756 20.6281 14.7584 20.486 14.2009 20.2047C13.6756 19.9334 13.2402 19.5156 12.9476 19.0019C12.6488 18.4348 12.4927 17.8034 12.4927 17.1624C12.4927 16.5213 12.6488 15.89 12.9476 15.3228C13.2373 14.8069 13.6735 14.3883 14.2009 14.12C14.7571 13.8352 15.3752 13.6928 16 13.7056C16.6245 13.6954 17.242 13.8377 17.7991 14.12V14.12ZM15.0095 15.9293C14.7366 16.2123 14.6052 16.6267 14.6052 17.1725C14.6052 17.7183 14.7366 18.1226 15.0095 18.4056C15.1372 18.5424 15.2923 18.6509 15.4647 18.7241C15.6371 18.7972 15.8229 18.8333 16.0101 18.8301C16.196 18.8343 16.3806 18.7985 16.5514 18.7253C16.7223 18.6521 16.8755 18.543 17.0006 18.4056C17.2634 18.1226 17.4049 17.7082 17.4049 17.1725C17.4049 16.6368 17.2735 16.2224 17.0006 15.9293C16.8755 15.7918 16.7223 15.6827 16.5514 15.6095C16.3806 15.5363 16.196 15.5006 16.0101 15.5047C15.8221 15.4958 15.6346 15.5294 15.4614 15.6029C15.2882 15.6764 15.1337 15.7879 15.0095 15.9293V15.9293Z" fill="#00A651"/><path d="M26.7139 12.7657C27.4315 13.3418 27.8863 14.1099 28.0986 15.0904H25.9053C25.7559 14.7118 25.4951 14.3875 25.1574 14.1605C24.8036 13.9282 24.3878 13.8084 23.9647 13.8168C23.6856 13.8081 23.4082 13.8637 23.1541 13.9794C22.8999 14.0951 22.6758 14.2677 22.4991 14.4839C22.1251 14.9286 21.9432 15.525 21.9432 16.2628C21.9432 17.0007 22.1251 17.597 22.4991 18.0316C22.8731 18.4662 23.3582 18.6886 23.9647 18.6886C24.3784 18.7011 24.7861 18.5868 25.133 18.361C25.4799 18.1352 25.7494 17.8086 25.9053 17.4252H28.0986C27.8863 18.3955 27.4315 19.1636 26.7139 19.7398C25.9963 20.3159 25.0967 20.609 24.0051 20.609C23.2386 20.6243 22.4817 20.436 21.8118 20.0632C21.1863 19.7006 20.6804 19.1631 20.3563 18.5168C20.0027 17.8153 19.8258 17.0381 19.8409 16.2527C19.8269 15.4674 20.0038 14.6905 20.3563 13.9887C20.6861 13.3464 21.1907 12.8103 21.8118 12.4422C22.4385 12.0784 23.1662 11.8964 24.0051 11.8964C25.0967 11.9065 25.9963 12.1895 26.7139 12.7657Z" fill="#00A651"/></g><defs><clipPath id="clip0"><rect width="32" height="32" fill="white" transform="translate(0 0.00411987)"/></clipPath></defs></svg>
