<svg width="200" height="200" viewBox="0 0 200 200" fill="none" xmlns="http://www.w3.org/2000/svg">
<rect width="200" height="200" rx="100" fill="#2775CA"/>
<path d="M127.5 76C125 66.5 115.811 61.9215 109.853 60.0576C103.895 58.1937 97.6523 58.8038 91.9619 61.806C86.2716 64.8082 81.4059 70.0589 78.0177 76.8536C74.6295 83.6484 72.8808 91.6623 73.0063 99.8201C73.1318 107.978 75.1254 115.889 78.7196 122.493C82.3139 129.097 87.3369 134.078 93.1148 136.766C98.8927 139.455 105.149 139.723 111.045 137.535C116.94 135.347 125.294 130.5 127 119.5L116.5 117C114 122 114.5 122 110 125C105.5 128 100.417 128.5 94 123C90.5 120 89.7377 118.296 87.4334 114.062C85.129 109.828 83.8509 104.756 83.7704 99.5258C83.69 94.2957 84.8111 89.1578 86.9833 84.8015C89.1556 80.4452 91.8518 75.4248 95.5 73.5C99.1482 71.5752 104.18 70.305 108 71.5C111.82 72.695 115.207 74.6604 117 80.5L127.5 76Z" fill="white"/>
<path d="M63.5 86.5H109.5L104 96H59.5L63.5 86.5Z" fill="white"/>
<path d="M63.5 102.5H109.5L104 112H59.5L63.5 102.5Z" fill="white"/>
<path d="M80.5001 173C59.5 167 53.5001 161.242 40.0001 146.5C30.1768 133.135 24.7484 117.648 25.0001 101.063C25.2517 84.4774 29.9311 68.2144 40.1554 55.1533C52.0001 41.5 61.5001 34 80.6359 29V41.5C63.0001 48.5 59.659 51.1047 50.5001 63.5C40.1554 77.5 38.4256 87.5793 38.221 101.063C38.0164 114.546 41.014 126.134 49.0001 137C56.9862 147.866 64.5001 152.5 80.5001 160.5L80.5001 173Z" fill="white"/>
<path d="M119.136 173C140.136 167 146.136 161.242 159.636 146.5C169.459 133.135 174.888 117.648 174.636 101.063C174.384 84.4774 169.705 68.2144 159.481 55.1533C147.636 41.5 138.136 34 119 29V41.5C136.636 48.5 139.977 51.1047 149.136 63.5C159.481 77.5 161.21 87.5793 161.415 101.063C161.62 114.546 158.622 126.134 150.636 137C142.65 147.866 135.136 152.5 119.136 160.5L119.136 173Z" fill="white"/>
</svg>
