<svg version="1.1" id="Layer_1" xmlns="http://www.w3.org/2000/svg" x="0" y="0" viewBox="0 0 32 32" style="enable-background:new 0 0 32 32" xml:space="preserve"><style>.st2,.st3,.st4{fill-rule:evenodd;clip-rule:evenodd;fill:url(#SVGID_00000075865296088005957330000000629115594596634799_)}.st3,.st4{fill:url(#SVGID_00000170994717312437883530000018021611337370350761_)}.st4{fill:url(#SVGID_00000119796450731459696970000006036082212130054790_)}</style><circle cx="16" cy="16" r="16" style="fill-rule:evenodd;clip-rule:evenodd;fill:#fff"/><linearGradient id="SVGID_1_" gradientUnits="userSpaceOnUse" x1="2823.785" y1="-1552.157" x2="2776.689" y2="-1522.701" gradientTransform="matrix(.2583 0 0 -.2583 -699.415 -379.122)"><stop offset="0" style="stop-color:#5891ba"/><stop offset=".149" style="stop-color:#5891ba"/><stop offset=".38" style="stop-color:#3b5c82"/><stop offset=".6" style="stop-color:#1d2749"/><stop offset=".674" style="stop-color:#141a33"/><stop offset=".788" style="stop-color:#0a0d1c"/><stop offset="1" style="stop-color:#0a0d1c"/></linearGradient><path d="m24 13.7-3.6 4.2 4.5 5.2c.2.2.4.3.6.3.5 0 .8-.4.8-.8v-.2L24 13.7z" style="fill-rule:evenodd;clip-rule:evenodd;fill:url(#SVGID_1_)"/><linearGradient id="SVGID_00000121974971278167577980000003918025971959752605_" gradientUnits="userSpaceOnUse" x1="2727.55" y1="-1517.143" x2="2789.666" y2="-1532.859" gradientTransform="matrix(.2583 0 0 -.2583 -699.415 -379.122)"><stop offset="0" style="stop-color:#5891ba"/><stop offset=".271" style="stop-color:#5891ba"/><stop offset=".671" style="stop-color:#3b5c82"/><stop offset="1" style="stop-color:#1d2749"/></linearGradient><path style="fill-rule:evenodd;clip-rule:evenodd;fill:url(#SVGID_00000121974971278167577980000003918025971959752605_)" d="m9.7 9.6-2.3 8.6c.3-1 1.3-1.8 2.4-1.8.7 0 1.4.3 1.8.8l.1.1.5.6 2.8 3.2c.3.4.8.6 1.3.6s1-.2 1.3-.6l6.4-7.3c-.9.9-2.2 1.5-3.6 1.5-1.5 0-2.8-.6-3.7-1.7l-.1-.1-.2-.3-3.7-4.3c-.3-.4-.8-.6-1.3-.6-.8 0-1.5.6-1.7 1.3z"/><linearGradient id="SVGID_00000111897844531170207230000012453438254003924369_" gradientUnits="userSpaceOnUse" x1="2725.387" y1="-1567.334" x2="2756.022" y2="-1522.147" gradientTransform="matrix(.2583 0 0 -.2583 -699.415 -379.122)"><stop offset="0" style="stop-color:#5891ba"/><stop offset=".051" style="stop-color:#5891ba"/><stop offset=".333" style="stop-color:#3b5c82"/><stop offset=".651" style="stop-color:#1d2749"/><stop offset="1" style="stop-color:#1d2749"/></linearGradient><path style="fill-rule:evenodd;clip-rule:evenodd;fill:url(#SVGID_00000111897844531170207230000012453438254003924369_)" d="m7.5 18.2-1.1 4.1v.2c0 .5.4.8.8.8.3 0 .5-.1.6-.3l4.5-5.2-.5-.6-.1-.1c-.5-.5-1.1-.8-1.8-.8-1.2.1-2.1.8-2.4 1.9z"/><radialGradient id="SVGID_00000117663577520460301400000001969970310010046337_" cx="1316.423" cy="1434.837" r="14.898" gradientTransform="translate(-762.283 -845.855) scale(.5954)" gradientUnits="userSpaceOnUse"><stop offset="0" style="stop-color:#5891ba"/><stop offset=".255" style="stop-color:#3a5c81"/><stop offset=".62" style="stop-color:#1d2749"/><stop offset=".871" style="stop-color:#0a0d1c"/><stop offset="1" style="stop-color:#0a0d1c"/></radialGradient><path style="fill-rule:evenodd;clip-rule:evenodd;fill:url(#SVGID_00000117663577520460301400000001969970310010046337_)" d="m20.1 8.9-3.7 4.3.2.3.1.1c.9 1 2.2 1.7 3.7 1.7 1.4 0 2.7-.6 3.6-1.5l-1-4.2c-.2-.7-.8-1.3-1.6-1.3-.5 0-1 .2-1.3.6z"/></svg>