<svg xmlns="http://www.w3.org/2000/svg" width="32" height="32"><path d="M16.0483 30.0314C23.8276 30.0314 30.134 23.725 30.134 15.9457C30.134 8.16637 23.8276 1.85999 16.0483 1.85999C8.26897 1.85999 1.96259 8.16637 1.96259 15.9457C1.96259 23.725 8.26897 30.0314 16.0483 30.0314Z" fill="white"/><path d="M7.38989 11.9442L9.23626 17.2611L10.9826 11.9442H13.6424V19.7303H11.6944V15.0141L9.97025 19.7303H8.34648L6.62233 15.0141V19.7303H4.6759V11.9442H7.38989Z" fill="#56BEB7"/><path d="M14.4581 18.4067C14.2023 17.9619 14.0743 17.4465 14.0743 16.8605C14.0743 16.2745 14.2023 15.7592 14.4581 15.3146C14.7117 14.8716 15.0907 14.5135 15.5474 14.2855C16.0183 14.0447 16.5689 13.9242 17.199 13.9242C17.8291 13.9242 18.3797 14.0447 18.8506 14.2855C19.3077 14.5133 19.6871 14.8714 19.9409 15.3146C20.1967 15.7596 20.3246 16.2749 20.3246 16.8605C20.3246 17.4461 20.197 17.9615 19.9418 18.4067C19.6879 18.8497 19.3086 19.2077 18.8516 19.4355C18.3798 19.6763 17.8292 19.7969 17.2 19.7971C16.5707 19.7973 16.0198 19.6768 15.5474 19.4355C15.0908 19.2075 14.7118 18.8496 14.4581 18.4067ZM18.3678 16.8605C18.3678 16.4383 18.264 16.0991 18.0565 15.8428C17.849 15.5865 17.564 15.4586 17.2015 15.459C16.8382 15.459 16.5527 15.5869 16.345 15.8428C16.1373 16.0986 16.0335 16.4379 16.0337 16.8605C16.0337 17.2827 16.1375 17.6219 16.345 17.8782C16.5525 18.1345 16.838 18.2624 17.2015 18.262C17.5651 18.262 17.85 18.1341 18.0565 17.8782C18.2629 17.6224 18.3667 17.2831 18.3678 16.8605Z" fill="#56BEB7"/><path d="M22.4664 12.3669C23.0484 12.0406 23.7362 11.8774 24.5297 11.8774C25.1602 11.8774 25.7238 12.0035 26.2203 12.2558C26.7027 12.4951 27.1133 12.8577 27.4105 13.3068C27.7071 13.7553 27.8777 14.2688 27.9222 14.8472H25.8754C25.8013 14.4616 25.6364 14.152 25.3805 13.9185C25.1247 13.685 24.804 13.5683 24.4185 13.5683C23.8919 13.5683 23.4821 13.7759 23.1893 14.1911C22.8965 14.6064 22.7501 15.1552 22.7501 15.8377C22.7501 16.5202 22.8965 17.069 23.1893 17.4843C23.4821 17.8995 23.8919 18.1071 24.4185 18.1071C24.804 18.1071 25.1247 17.9904 25.3805 17.7569C25.6364 17.5234 25.8013 17.2139 25.8754 16.8282H27.9222C27.8775 17.4064 27.7069 17.9199 27.4105 18.3687C27.1133 18.8178 26.7027 19.1803 26.2203 19.4196C25.7235 19.6729 25.16 19.7996 24.5297 19.7996C23.7362 19.7996 23.0484 19.6364 22.4664 19.3101C21.8931 18.9929 21.4267 18.5129 21.1261 17.9307C20.8145 17.3376 20.6588 16.6409 20.659 15.8409C20.6592 15.0408 20.8149 14.3442 21.1261 13.751C21.4259 13.1671 21.8924 12.6854 22.4664 12.3669Z" fill="#56BEB7"/><path d="M16.0002 2.12789C19.2008 2.12974 22.3023 3.23794 24.7794 5.26476C27.2564 7.29157 28.9567 10.1124 29.5921 13.2493C30.2275 16.3862 29.7589 19.6462 28.2658 22.4772C26.7728 25.3082 24.3469 27.536 21.3993 28.7832C18.0132 30.1932 14.2065 30.2051 10.8116 28.8163C7.41669 27.4276 4.70974 24.7511 3.28261 21.3722C1.85548 17.9932 1.82426 14.1867 3.19579 10.7847C4.56731 7.38284 7.23 4.66235 10.6017 3.2181C12.3095 2.49534 14.1457 2.12453 16.0002 2.12789ZM16.0002 0.167847C7.25598 0.167847 0.167847 7.25598 0.167847 16.0002C0.167847 24.7444 7.25598 31.8325 16.0002 31.8325C24.7444 31.8325 31.8325 24.7441 31.8325 16.0002C31.8325 7.2563 24.7441 0.167847 16.0002 0.167847Z" fill="#56BEB7"/></svg>
