<svg xmlns="http://www.w3.org/2000/svg" width="32" height="32"><path fill-rule="evenodd" clip-rule="evenodd" d="M7.94433 7.96457L0 15.9465L7.9978 23.9733L15.9956 32L23.9978 23.9805L32 15.9611L25.638 9.56484C18.3392 2.22667 16.1163 0.0245959 15.983 1.89279e-05C15.9312 -0.0095026 12.3137 3.5745 7.94433 7.96457ZM11.5751 13.5254L13.997 15.9656L11.5554 18.4279C10.2125 19.7822 9.07831 20.8905 9.03492 20.8909C8.95701 20.8916 4.1471 16.1172 4.08435 15.9769C4.02886 15.8528 8.85579 11.0412 9.0125 11.0644C9.08985 11.0758 10.2429 12.1833 11.5751 13.5254ZM25.5267 13.485L27.9866 15.9201L25.5272 18.4058C24.1746 19.773 23.0461 20.8916 23.0196 20.8916C22.9295 20.8916 18.1066 16.0676 18.1066 15.9774C18.1066 15.8634 22.8764 11.0435 22.9856 11.0472C23.0302 11.0487 24.1737 12.1457 25.5267 13.485ZM18.5296 20.4638C19.8495 21.7951 20.9295 22.9265 20.9295 22.978C20.9295 23.0936 16.0887 27.8903 15.9719 27.8903C15.8649 27.8903 11.09 23.0752 11.0891 22.9663C11.0881 22.8634 15.9417 18.0485 16.0495 18.0455C16.0935 18.0442 17.2096 19.1325 18.5296 20.4638Z" fill="#242A58"/></svg>
