<svg xmlns="http://www.w3.org/2000/svg" width="32" height="32"><g clip-path="url(#clip0)"><path d="M14.7224 29.7543C11.9915 29.7534 9.32227 28.9428 7.05211 27.425C4.78194 25.9072 3.01281 23.7503 1.96839 21.227C0.923979 18.7038 0.651183 15.9276 1.1845 13.2493C1.71782 10.5711 3.03329 8.11109 4.96461 6.18042C6.89592 4.24974 9.35634 2.93508 12.0348 2.40266C14.7132 1.87023 17.4894 2.14395 20.0122 3.18921C22.5351 4.23446 24.6914 6.00431 26.2085 8.27498C27.7255 10.5457 28.5353 13.2152 28.5353 15.946C28.5312 19.6078 27.0745 23.1183 24.4848 25.7071C21.8951 28.2959 18.3841 29.7515 14.7224 29.7543" fill="#FF9931"/><path d="M14.7224 3.05629C17.272 3.05508 19.7647 3.81002 21.8852 5.22562C24.0057 6.64122 25.6587 8.6539 26.6353 11.0091C27.6118 13.3643 27.8679 15.9561 27.3713 18.4569C26.8746 20.9577 25.6475 23.255 23.8451 25.0582C22.0426 26.8615 19.7459 28.0897 17.2454 28.5876C14.7449 29.0854 12.1529 28.8305 9.79722 27.8551C7.44158 26.8797 5.42812 25.2276 4.0115 23.1078C2.59489 20.9879 1.83877 18.4956 1.83877 15.946C1.83877 12.5285 3.19595 9.25088 5.61191 6.83376C8.02788 4.41665 11.3049 3.05791 14.7224 3.05629V3.05629ZM14.7224 1.21906C11.8098 1.21996 8.96299 2.08446 6.54176 3.70323C4.12053 5.322 2.23365 7.62235 1.11971 10.3134C0.00576733 13.0045 -0.28522 15.9655 0.283541 18.8219C0.852302 21.6783 2.25527 24.302 4.31505 26.3612C6.37484 28.4203 8.99894 29.8224 11.8556 30.3903C14.7122 30.9582 17.673 30.6663 20.3638 29.5515C23.0545 28.4367 25.3543 26.5491 26.9723 24.1274C28.5903 21.7056 29.4539 18.8585 29.4539 15.946C29.4494 12.0407 27.8958 8.29679 25.1339 5.53578C22.3721 2.77478 18.6276 1.2223 14.7224 1.21906" fill="white"/><path d="M30.0893 7.78104C29.218 7.39669 28.2843 7.17363 27.3334 7.1227C26.5116 7.07658 25.6926 7.25213 24.9619 7.631C24.8243 7.7058 24.6909 7.78809 24.5623 7.87749C23.4599 8.65066 22.8965 9.86783 22.6148 10.8018L22.5015 11.1998L22.8689 11.0038L24.8057 9.975C24.985 9.87815 25.1952 9.85598 25.3908 9.91332C25.5863 9.97066 25.7513 10.1029 25.8499 10.2812V10.2812L25.8606 10.2996C25.8726 10.3235 25.8833 10.348 25.8927 10.3731L30.3603 7.89893C30.3205 7.88055 30.126 7.804 30.0831 7.7841" fill="#006E3C"/><path d="M29.382 10.7757C27.1681 14.4333 23.2257 12.613 23.2257 12.613L24.648 11.8474C24.7659 11.777 25.5422 11.3682 25.5422 11.3682C25.7197 11.2697 25.8525 11.1065 25.9129 10.9127C25.9733 10.7188 25.9568 10.5091 25.8667 10.3271L30.3664 7.89586C30.2533 8.91635 29.9172 9.8995 29.382 10.7757Z" fill="#06B23C"/><path d="M31.5805 6.74759C31.3845 6.63277 29.5901 5.61004 27.4008 5.52277C26.3018 5.46682 25.2081 5.70798 24.2346 6.22092C23.9322 6.38387 23.6452 6.57399 23.3772 6.78893C21.4053 8.36742 20.8939 10.9227 20.7638 12.0449L20.7531 12.1353L20.6734 12.1781L20.0947 12.4844C19.5309 11.9438 18.8426 11.5505 18.0906 11.3391L17.9788 11.3085L18.5576 9.01198L17.1796 8.65679L16.6055 10.9411L15.5705 10.664L16.1431 8.38886L14.7652 8.03366L14.1987 10.2965C12.5314 9.86017 11.4643 9.59531 11.4643 9.59531C11.4643 9.59531 11.2347 10.7482 11.1352 11.0253C11.1352 11.0253 11.4184 11.0942 11.7231 11.1784C11.9236 11.2366 12.905 11.3422 12.5774 12.5563C12.3937 13.2392 11.3219 17.8185 11.2377 18.1308C11.1413 18.5028 11.0479 18.7019 10.5886 18.6069L9.49236 18.362L8.80493 20.0017C9.05449 20.0874 9.91799 20.2865 11.5608 20.7014L10.9866 22.9627L12.3646 23.3179L12.9341 21.0535L13.9691 21.3245L13.3965 23.5858L14.7744 23.941L15.3516 21.6445C16.9485 21.9415 17.8686 21.8466 18.0875 21.8068C19.4211 21.5603 19.9875 20.5345 20.231 19.5562C20.923 16.8003 18.6525 16.5538 18.9403 16.4941C20.2111 16.2384 20.8189 15.0228 20.75 13.9434L21.3992 13.5974L21.4788 13.553L21.5568 13.5959C22.6978 14.2057 23.958 14.5594 25.2497 14.6324C26.172 14.6743 27.0913 14.4991 27.9336 14.121C28.0499 14.0674 28.1632 14.0108 28.2765 13.9511C31.5131 12.2103 31.9311 7.96935 31.9678 7.49167L32 6.99868L31.5805 6.74759ZM17.5073 18.982C17.1307 20.4855 14.5815 19.7276 14.5815 19.7276L13.3705 19.4214L14.1252 16.4053L15.5721 16.7789C15.5721 16.7789 17.9314 17.2903 17.5073 18.979V18.982ZM17.9666 14.4977C17.6206 15.8756 15.497 15.2371 15.497 15.2371L14.4896 14.9769L15.1817 12.221L16.3866 12.5272C16.3866 12.5272 18.3555 12.9452 17.9666 14.4946V14.4977ZM30.3235 8.00763V8.02447C30.1 9.27379 29.4416 11.5229 27.5447 12.5425L27.4942 12.567C26.8162 12.9095 26.0602 13.0679 25.3017 13.0263C24.7317 13.0001 24.1678 12.8971 23.6253 12.7201L23.2318 12.5946L23.5962 12.3986L25.5482 11.3514C25.7302 11.2537 25.8669 11.0889 25.9295 10.8921C25.9484 10.8252 25.9592 10.7564 25.9616 10.6869C25.9659 10.5755 25.9466 10.4643 25.905 10.3608C25.8955 10.3358 25.8848 10.3112 25.8728 10.2873L25.8621 10.269C25.7635 10.0906 25.5985 9.95842 25.403 9.90108C25.2075 9.84374 24.9972 9.8659 24.8179 9.96275L22.8812 10.9993L22.5015 11.1998L22.6224 10.8002C22.9042 9.86783 23.4676 8.64913 24.5699 7.87596C24.6985 7.78656 24.8319 7.70427 24.9695 7.62947C25.7002 7.2506 26.5193 7.07505 27.3411 7.12116C28.2919 7.1721 29.2257 7.39516 30.0969 7.77951C30.1398 7.79941 30.1827 7.81625 30.2225 7.83615L30.3434 7.89433L30.3235 8.00763Z" fill="white"/></g><defs><clipPath id="clip0"><rect width="32" height="32" fill="white"/></clipPath></defs></svg>
