<svg xmlns="http://www.w3.org/2000/svg" width="32" height="32"><circle cx="16" cy="16" r="16" fill="white"/><path fill-rule="evenodd" clip-rule="evenodd" d="M15.056 0.0170744C11.5254 0.302275 8.63393 1.41633 5.98862 3.51058C5.3057 4.05122 4.03518 5.3212 3.4943 6.00383C1.59728 8.39803 0.468244 11.0951 0.0847848 14.1486C-0.0282616 15.0486 -0.0282616 16.9744 0.0847848 17.8744C0.468244 20.928 1.59728 23.625 3.4943 26.0192C4.03518 26.7018 5.3057 27.9718 5.98862 28.5125C8.38409 30.4089 11.0885 31.5399 14.1369 31.92C15.0359 32.0322 16.9653 32.0322 17.8643 31.92C20.9127 31.5399 23.6171 30.4089 26.0125 28.5125C26.6882 27.9776 27.9649 26.7034 28.4894 26.0405C30.4083 23.6156 31.5342 20.9321 31.9159 17.8744C32.028 16.9758 32.028 15.0472 31.9159 14.1486C31.5356 11.1015 30.4041 8.39828 28.5069 6.00383C27.966 5.3212 26.6955 4.05122 26.0125 3.51058C23.6235 1.61921 20.8687 0.46575 17.8898 0.109555C17.2547 0.0336107 15.5428 -0.0222759 15.056 0.0170744ZM13.4076 6.74547C13.4998 6.78609 14.053 6.99612 14.6368 7.21216C15.8042 7.64409 15.8985 7.70748 15.8985 8.06041C15.8985 8.2147 15.8637 8.29636 15.7492 8.41079C15.5299 8.63 15.3014 8.60989 14.5964 8.30948C14.4945 8.26604 14.2312 8.16453 13.8688 8.02902C13.7635 7.98962 13.5559 7.90827 13.4075 7.8482L13.1376 7.73897L10.611 8.99798C9.22142 9.69041 8.0738 10.2742 8.06084 10.2952C8.03959 10.3296 8.53079 10.5294 9.82235 11.0118C10.3066 11.1927 10.3479 11.2087 10.7328 11.365L11.0051 11.4756L11.4222 11.263C11.6515 11.1461 12 10.9641 12.1966 10.8586C12.6539 10.613 13.4596 10.1889 14.239 9.7834C14.576 9.60814 15.0356 9.3679 15.2602 9.2496C15.4849 9.13124 15.8985 8.91377 16.1793 8.76622C16.4601 8.61872 16.9541 8.35858 17.2771 8.18821C18.2389 7.68074 18.422 7.59158 18.5037 7.59091C18.5872 7.5902 19.3379 7.86315 19.4847 7.94757C19.5335 7.97559 19.5989 7.99855 19.6302 7.99855C19.6614 7.99855 19.7594 8.02943 19.8479 8.0672C19.9364 8.10492 20.2041 8.2099 20.4428 8.30044C20.6815 8.39098 20.9572 8.49572 21.0555 8.53313C21.1538 8.57059 21.4295 8.67435 21.6682 8.76372C22.1761 8.95393 22.3831 9.13696 22.3831 9.39603C22.3831 9.66469 22.2284 9.80055 21.5027 10.1695C21.1304 10.3588 20.4351 10.7142 19.9577 10.9593C19.4803 11.2045 18.6072 11.6521 18.0174 11.9542C17.4277 12.2562 16.6752 12.642 16.3452 12.8115C16.0153 12.981 15.7453 13.1356 15.7453 13.1551C15.7453 13.1746 15.8544 13.2298 15.9878 13.2777C16.1212 13.3257 16.3108 13.3966 16.4091 13.4353C17.2697 13.7742 17.7928 13.97 17.8377 13.97C17.8671 13.97 17.9311 13.9919 17.9799 14.0187C18.0837 14.0757 18.8785 14.3814 19.2333 14.5007L19.479 14.5834L21.9905 13.33C23.3719 12.6407 24.5076 12.0606 24.5143 12.0409C24.521 12.0212 24.1878 11.8811 23.7739 11.7295C23.36 11.578 22.9995 11.4344 22.9728 11.4105C22.9461 11.3866 22.8887 11.3669 22.8451 11.3668C22.8016 11.3666 22.7002 11.3321 22.6198 11.2902C22.5393 11.2482 22.4437 11.2139 22.4073 11.2139C22.3709 11.2139 22.2792 11.1404 22.2035 11.0506C22.0894 10.915 22.0706 10.8529 22.0931 10.6855C22.1326 10.3914 22.3255 10.2168 22.6012 10.2257C22.7877 10.2318 23.8735 10.6073 24.1311 10.7549C24.1799 10.7828 24.2488 10.8058 24.2843 10.806C24.3198 10.8062 24.4105 10.8384 24.4859 10.8777C24.5612 10.917 24.693 10.9646 24.7788 10.9834C24.8647 11.0022 24.948 11.0388 24.964 11.0648C24.98 11.0907 25.0285 11.1119 25.0718 11.1119C25.115 11.1119 25.2228 11.1437 25.3113 11.1826C25.3998 11.2216 25.6152 11.3045 25.7901 11.367C26.2285 11.5237 26.3657 11.6604 26.3657 11.9402C26.3657 12.0616 26.3326 12.2082 26.2922 12.2658C26.2217 12.3664 19.7142 15.6543 19.5856 15.6543C19.5391 15.6543 19.5237 15.9153 19.5237 16.7023C19.5237 17.6837 19.5294 17.7475 19.6131 17.7051C19.6622 17.6802 21.0729 16.9774 22.7479 16.1434C25.5438 14.7511 25.8085 14.6297 25.9783 14.6616C26.3632 14.7337 26.5125 15.2456 26.2253 15.5085C26.1481 15.5792 24.6095 16.3701 22.8062 17.2661L19.5275 18.8952L19.5256 19.9032C19.5246 20.4576 19.5375 20.9112 19.5543 20.9112C19.5712 20.9112 20.9713 20.2222 22.6656 19.38C24.6364 18.4005 25.8012 17.8489 25.8988 17.8489C25.9886 17.8489 26.1162 17.9033 26.2086 17.981C26.338 18.0898 26.3657 18.1509 26.3657 18.3269C26.3657 18.4445 26.3306 18.5908 26.2878 18.652C26.209 18.7644 19.7408 22.034 19.5973 22.034C19.5356 22.034 19.5237 22.204 19.5237 23.0845C19.5237 23.6623 19.5422 24.1274 19.5648 24.118C19.5874 24.1087 20.1905 23.8105 20.9051 23.4554C21.6197 23.1002 22.3882 22.7194 22.6128 22.6092C22.8375 22.499 23.0673 22.3823 23.1234 22.35C23.1796 22.3177 23.7841 22.0152 24.4669 21.6778C25.838 21.0001 26.0049 20.9542 26.2404 21.1896C26.396 21.3451 26.4152 21.7098 26.2764 21.8717C26.2272 21.9289 25.2794 22.4264 24.1701 22.9771C23.0609 23.5278 22.1164 23.9984 22.0713 24.0228C21.3797 24.3973 19.6026 25.2494 19.5133 25.2494C19.448 25.2494 19.2686 25.2017 19.1145 25.1435C18.9605 25.0853 18.777 25.0194 18.7068 24.9971C18.6365 24.9748 17.8094 24.6676 16.8686 24.3144C15.9278 23.9613 15.0949 23.6572 15.0177 23.6387C14.8863 23.6073 14.8773 23.6158 14.8773 23.7717C14.8773 23.8732 14.8245 24.0075 14.7421 24.1154C14.6089 24.29 14.6027 24.2921 14.3022 24.2649C14.1346 24.2497 13.9725 24.2124 13.9421 24.1819C13.9116 24.1515 13.8546 24.1266 13.8153 24.1266C13.776 24.1266 13.6714 24.0949 13.583 24.0561C13.4945 24.0174 13.2268 23.9162 12.9881 23.8313C11.1251 23.1683 10.6029 22.9676 10.4906 22.871C10.3758 22.7723 10.3586 22.7105 10.3345 22.3107L10.3074 21.8613L8.97986 21.3609C8.24971 21.0857 7.51444 20.8138 7.34595 20.7567C7.17745 20.6997 6.99363 20.6335 6.93747 20.6096C6.8813 20.5857 6.73195 20.5233 6.60558 20.4711C6.16121 20.2872 6.20073 20.8026 6.19879 15.1655L6.1971 10.16L6.32337 10.0414C6.52863 9.84863 12.8857 6.67953 13.0757 6.67529C13.166 6.67325 13.3153 6.70479 13.4076 6.74547ZM18.2472 8.84803C18.1208 8.91811 17.5924 9.19483 17.0728 9.46299C16.5533 9.73119 15.9444 10.0481 15.7198 10.1674C15.4951 10.2866 14.8747 10.6098 14.3411 10.8855C13.8076 11.1613 13.0953 11.5309 12.7583 11.7068C12.4213 11.8827 11.9682 12.1136 11.7514 12.22L11.3572 12.4133L11.3684 17.2875L11.3797 22.1616L11.6094 22.2427C11.8709 22.3349 11.9701 22.3716 12.2222 22.469C12.3204 22.507 12.6077 22.6101 12.8604 22.6982C13.1132 22.7863 13.4066 22.891 13.5124 22.931C13.6183 22.971 13.7389 23.0037 13.7805 23.0037C13.8467 23.0037 13.8561 22.3873 13.8561 18.0344C13.8561 13.1324 13.8574 13.0633 13.9588 12.9345C14.0153 12.8627 14.3542 12.6561 14.7119 12.4753C15.3084 12.1739 15.8638 11.8913 19.345 10.1178C19.9909 9.78876 20.5398 9.50698 20.5648 9.49167C20.5898 9.47636 20.3945 9.38439 20.1308 9.28732C19.8671 9.19024 19.4249 9.0213 19.1482 8.91193C18.8714 8.80256 18.6071 8.71477 18.561 8.71686C18.5148 8.71896 18.3736 8.77801 18.2472 8.84803Z" fill="#1D70B8"/></svg>
