<svg xmlns="http://www.w3.org/2000/svg" width="32" height="32"><path d="M16 0C24.8374 0 32 7.16407 32 16C32 24.8374 24.8374 32 16 32C7.16407 32 0 24.8366 0 16C0 7.16407 7.16407 0 16 0Z" fill="#F5AC37"/><path d="M16.5884 17.1298H22.6681C22.7977 17.1298 22.8589 17.1298 22.8683 16.9599C22.9179 16.3414 22.9179 15.7193 22.8683 15.1001C22.8683 14.9799 22.8085 14.9302 22.6782 14.9302H10.5785C10.4287 14.9302 10.3884 14.9799 10.3884 15.1203V16.9001C10.3884 17.1298 10.3884 17.1298 10.6281 17.1298H16.5884V17.1298ZM22.1893 12.8501C22.2066 12.8047 22.2066 12.7551 22.1893 12.7104C22.0878 12.4894 21.9675 12.2784 21.8278 12.0804C21.6176 11.742 21.3699 11.4302 21.0877 11.1502C20.9545 10.981 20.8004 10.829 20.6276 10.7002C19.7621 9.96359 18.7333 9.44231 17.6273 9.18022C17.0693 9.05494 16.4991 8.99518 15.9274 9.00022H10.5576C10.4078 9.00022 10.3877 9.05998 10.3877 9.1903V12.7399C10.3877 12.8897 10.3877 12.93 10.5777 12.93H22.1173C22.1173 12.93 22.2174 12.9099 22.2375 12.8501H22.1886H22.1893ZM22.1893 19.2099C22.0194 19.1912 21.848 19.1912 21.6781 19.2099H10.5885C10.4388 19.2099 10.3884 19.2099 10.3884 19.4101V22.8805C10.3884 23.0404 10.3884 23.0807 10.5885 23.0807H15.7085C15.9533 23.0994 16.1981 23.0821 16.4379 23.031C17.1809 22.9777 17.9117 22.8164 18.6087 22.5508C18.8621 22.4629 19.1069 22.3484 19.3381 22.2109H19.4079C20.6082 21.5867 21.583 20.606 22.1979 19.4022C22.1979 19.4022 22.2678 19.251 22.1893 19.2114V19.2099ZM8.37883 24.88V24.8202V22.4903V21.7004V19.3503C8.37883 19.22 8.37883 19.2006 8.21899 19.2006H6.04889C5.92865 19.2006 5.87897 19.2006 5.87897 19.0407V17.1406H8.19883C8.32843 17.1406 8.37883 17.1406 8.37883 16.9707V15.0908C8.37883 14.9705 8.37883 14.941 8.21899 14.941H6.04889C5.92865 14.941 5.87897 14.941 5.87897 14.7812V13.0215C5.87897 12.9113 5.87897 12.8818 6.03881 12.8818H8.18875C8.33851 12.8818 8.37883 12.8818 8.37883 12.6917V7.30172C8.37883 7.14188 8.37883 7.10156 8.57899 7.10156H16.0786C16.6229 7.12316 17.1636 7.18292 17.6986 7.28156C18.8009 7.48533 19.8601 7.87917 20.8285 8.4415C21.4707 8.8195 22.0618 9.27598 22.5882 9.80159C22.9842 10.2127 23.3413 10.6577 23.6581 11.1314C23.9727 11.6117 24.2341 12.1251 24.4393 12.6615C24.4645 12.8011 24.5984 12.8955 24.7381 12.8717H26.5281C26.7577 12.8717 26.7577 12.8717 26.7678 13.092V14.7322C26.7678 14.892 26.7081 14.9324 26.5475 14.9324H25.1672C25.0276 14.9324 24.9872 14.9324 24.9973 15.1124C25.052 15.7215 25.052 16.3328 24.9973 16.9419C24.9973 17.1118 24.9973 17.132 25.1881 17.132H26.7671C26.8369 17.222 26.7671 17.312 26.7671 17.4027C26.7772 17.5186 26.7772 17.636 26.7671 17.7519V18.9622C26.7671 19.1322 26.7174 19.1826 26.5669 19.1826H24.6769C24.5452 19.1574 24.417 19.2416 24.3868 19.3726C23.9367 20.5427 23.2167 21.5917 22.2865 22.4327C21.9466 22.7387 21.5895 23.0267 21.2166 23.2924C20.8162 23.5228 20.4267 23.7625 20.0163 23.9526C19.261 24.2925 18.469 24.543 17.6561 24.7021C16.8843 24.8404 16.1016 24.903 15.3161 24.8922H8.37595V24.8821L8.37883 24.88Z" fill="#FEFEFD"/></svg>
