<svg xmlns="http://www.w3.org/2000/svg" width="32" height="32"><path d="M12.9477 28.7841C5.90074 28.7841 0.167847 23.0509 0.167847 16.0043C0.167847 8.95762 5.89915 3.2241 12.9477 3.2241C14.9685 3.21798 16.9613 3.6964 18.7591 4.61925C20.1709 5.34442 21.4368 6.32396 22.493 7.50865C22.5678 7.46527 22.6437 7.42315 22.7201 7.38199C23.7625 6.82754 24.9322 6.54636 26.1965 6.54636C26.2985 6.54636 26.4023 6.54826 26.5053 6.55206C28.8453 6.63534 30.4317 7.27211 30.8433 7.51023L31.28 7.76767C31.4691 7.87914 31.6213 8.04366 31.7179 8.24082C31.8144 8.43799 31.851 8.65914 31.823 8.87688L31.7952 9.09188L31.7929 9.12513C31.5735 12.392 30.1318 14.8909 27.7332 16.1617C27.5879 16.2383 27.453 16.3041 27.3187 16.3643C26.8012 16.5958 26.2572 16.7632 25.6991 16.8627C25.2558 23.5107 19.7059 28.7841 12.9477 28.7841Z" fill="white"/><path d="M24.6063 16.0043C24.6063 22.443 19.3867 27.6629 12.9476 27.6629C6.50864 27.6629 1.28903 22.443 1.28903 16.0043C1.28903 9.56562 6.50864 4.34538 12.9476 4.34538C19.3867 4.34538 24.6063 9.56689 24.6063 16.0043Z" fill="#0083FF"/><path d="M12.7374 6.11668H12.3841C12.1328 6.11668 11.929 6.3204 11.929 6.57171V6.92508C11.929 7.17638 12.1328 7.3801 12.3841 7.3801H12.7374C12.9887 7.3801 13.1925 7.17638 13.1925 6.92508V6.57171C13.1925 6.3204 12.9887 6.11668 12.7374 6.11668Z" fill="white"/><path d="M12.7374 7.88574H12.3841C12.1328 7.88574 11.929 8.08946 11.929 8.34076V8.69414C11.929 8.94544 12.1328 9.14916 12.3841 9.14916H12.7374C12.9887 9.14916 13.1925 8.94544 13.1925 8.69414V8.34076C13.1925 8.08946 12.9887 7.88574 12.7374 7.88574Z" fill="white"/><path d="M7.43044 12.6874H7.07706C6.82576 12.6874 6.62204 12.8911 6.62204 13.1424V13.4958C6.62204 13.7471 6.82576 13.9508 7.07706 13.9508H7.43044C7.68174 13.9508 7.88546 13.7471 7.88546 13.4958V13.1424C7.88546 12.8911 7.68174 12.6874 7.43044 12.6874Z" fill="white"/><path d="M9.45226 12.6874H9.09888C8.84758 12.6874 8.64386 12.8911 8.64386 13.1424V13.4958C8.64386 13.7471 8.84758 13.9508 9.09888 13.9508H9.45226C9.70356 13.9508 9.90728 13.7471 9.90728 13.4958V13.1424C9.90728 12.8911 9.70356 12.6874 9.45226 12.6874Z" fill="white"/><path d="M10.3626 9.65488H12.4841C12.5439 9.65488 12.603 9.66665 12.6582 9.68951C12.7134 9.71238 12.7636 9.7459 12.8058 9.78815C12.8481 9.8304 12.8816 9.88056 12.9045 9.93577C12.9274 9.99097 12.9391 10.0501 12.9391 10.1099V10.463C12.9391 10.5837 12.8911 10.6995 12.8058 10.7849C12.7204 10.8703 12.6045 10.9183 12.4838 10.9183H10.3622C10.2416 10.9183 10.1258 10.8704 10.0405 10.785C9.95517 10.6997 9.90723 10.584 9.90723 10.4633V10.1099C9.90731 9.98919 9.95532 9.87345 10.0407 9.78813C10.1261 9.70281 10.2419 9.65488 10.3626 9.65488V9.65488Z" fill="white"/><path d="M10.6153 12.6874H10.9683C11.089 12.6874 11.2047 12.7353 11.2901 12.8207C11.3754 12.906 11.4233 13.0218 11.4233 13.1424V15.264C11.4233 15.3847 11.3754 15.5005 11.29 15.5859C11.2046 15.6713 11.0888 15.7193 10.968 15.7193H10.6149C10.4943 15.7193 10.3785 15.6714 10.2932 15.586C10.2079 15.5007 10.1599 15.385 10.1599 15.2643V13.1427C10.1599 13.022 10.2079 12.9062 10.2933 12.8208C10.3787 12.7354 10.4945 12.6874 10.6153 12.6874V12.6874Z" fill="white"/><path d="M18.2971 12.6874H15.1639C14.9126 12.6874 14.7089 12.8911 14.7089 13.1424V13.4958C14.7089 13.7471 14.9126 13.9508 15.1639 13.9508H18.2971C18.5484 13.9508 18.7521 13.7471 18.7521 13.4958V13.1424C18.7521 12.8911 18.5484 12.6874 18.2971 12.6874Z" fill="white"/><path d="M8.34078 11.171H11.4737C11.5943 11.1709 11.7099 11.2187 11.7953 11.3038C11.8807 11.3889 11.9288 11.5045 11.929 11.625V11.9781C11.929 12.0989 11.881 12.2147 11.7957 12.3001C11.7103 12.3855 11.5944 12.4334 11.4737 12.4334H8.34078C8.281 12.4336 8.22177 12.422 8.16648 12.3993C8.11119 12.3765 8.06092 12.3431 8.01855 12.301C7.97617 12.2588 7.94252 12.2087 7.91952 12.1535C7.89652 12.0983 7.88462 12.0392 7.88449 11.9794V11.625C7.88483 11.5043 7.93308 11.3887 8.01864 11.3036C8.1042 11.2184 8.22007 11.1707 8.34078 11.171V11.171Z" fill="white"/><path d="M18.0441 11.171H17.6907C17.4394 11.171 17.2357 11.3747 17.2357 11.626V11.9794C17.2357 12.2307 17.4394 12.4344 17.6907 12.4344H18.0441C18.2954 12.4344 18.4991 12.2307 18.4991 11.9794V11.626C18.4991 11.3747 18.2954 11.171 18.0441 11.171Z" fill="white"/><path d="M16.5277 14.7089H14.4058C14.1544 14.7089 13.9505 14.9127 13.9505 15.1642V15.517C13.9505 15.7684 14.1544 15.9723 14.4058 15.9723H16.5277C16.7792 15.9723 16.983 15.7684 16.983 15.517V15.1642C16.983 14.9127 16.7792 14.7089 16.5277 14.7089Z" fill="white"/><path d="M14.7589 16.2253H14.4055C14.1542 16.2253 13.9505 16.429 13.9505 16.6803V17.0337C13.9505 17.285 14.1542 17.4887 14.4055 17.4887H14.7589C15.0102 17.4887 15.2139 17.285 15.2139 17.0337V16.6803C15.2139 16.429 15.0102 16.2253 14.7589 16.2253Z" fill="white"/><path d="M14.4059 17.9941H14.7589C14.8797 17.9941 14.9955 18.0421 15.0809 18.1274C15.1663 18.2128 15.2143 18.3287 15.2143 18.4494V18.8025C15.2138 18.923 15.1657 19.0384 15.0803 19.1234C14.995 19.2085 14.8794 19.2562 14.7589 19.2562H14.4059C14.2852 19.2562 14.1694 19.2083 14.0841 19.123C13.9988 19.0376 13.9508 18.9219 13.9508 18.8012V18.4494C13.9508 18.3287 13.9988 18.2129 14.0841 18.1276C14.1694 18.0422 14.2852 17.9942 14.4059 17.9941V17.9941Z" fill="white"/><path d="M14.1541 6.87535H14.5072C14.6279 6.87535 14.7436 6.92329 14.8289 7.00862C14.9143 7.09396 14.9622 7.20969 14.9622 7.33037V10.463C14.9622 10.5837 14.9142 10.6995 14.8288 10.7849C14.7434 10.8703 14.6276 10.9183 14.5069 10.9183H14.1541C14.0334 10.9183 13.9177 10.8704 13.8324 10.785C13.747 10.6997 13.6991 10.584 13.6991 10.4633V7.33006C13.6993 7.20946 13.7473 7.09385 13.8326 7.0086C13.9179 6.92336 14.0335 6.87543 14.1541 6.87535V6.87535Z" fill="white"/><path d="M12.9901 13.9508H12.6368C12.3855 13.9508 12.1817 14.1545 12.1817 14.4058V17.5391C12.1817 17.7904 12.3855 17.9941 12.6368 17.9941H12.9901C13.2414 17.9941 13.4452 17.7904 13.4452 17.5391V14.4058C13.4452 14.1545 13.2414 13.9508 12.9901 13.9508Z" fill="white"/><path d="M16.275 8.89651H15.9223C15.6708 8.89651 15.4669 9.10038 15.4669 9.35185V11.4737C15.4669 11.7252 15.6708 11.929 15.9223 11.929H16.275C16.5265 11.929 16.7303 11.7252 16.7303 11.4737V9.35185C16.7303 9.10038 16.5265 8.89651 16.275 8.89651Z" fill="white"/><path d="M21.1286 14.1348L29.2265 9.4497C29.2265 9.4497 29.4032 7.77369 26.2741 7.80599C23.145 7.83829 21.3737 9.88573 21.1365 11.7261C20.8993 13.5664 21.1286 14.1348 21.1286 14.1348Z" fill="#006E36"/><path d="M29.356 9.24545L21.2568 13.9318C21.2568 13.9318 21.0804 15.6079 24.2092 15.5752C27.338 15.5426 29.1118 13.4933 29.3481 11.6539C29.5843 9.81447 29.356 9.24545 29.356 9.24545Z" fill="#00B22B"/><path d="M30.2841 8.48074C30.0855 8.36643 28.6856 7.75245 26.465 7.67139C25.2836 7.62927 24.1981 7.86486 23.2463 8.37118C22.9387 8.53423 22.6466 8.72501 22.3736 8.94114C20.3689 10.5215 20.3154 12.4686 20.1834 13.5936L18.5967 14.3694C18.456 14.4285 18.3401 14.5345 18.2687 14.6693C18.1973 14.8042 18.1747 14.9596 18.2049 15.1091C18.235 15.2587 18.316 15.3933 18.434 15.4899C18.5521 15.5866 18.6999 15.6394 18.8525 15.6395C18.9531 15.6395 19.0524 15.617 19.1432 15.5736V15.5736L19.1651 15.5619L19.1692 15.5597L19.5301 15.3697L20.2603 14.9853L20.6137 14.8159C21.4778 15.2592 22.5943 15.7975 24.1307 15.8542C25.1079 15.8887 26.0242 15.7155 26.8602 15.3412C26.978 15.2883 27.0942 15.231 27.2085 15.1708C30.5016 13.4258 30.6422 9.45823 30.6792 8.98009L30.7109 8.73279L30.2841 8.48074ZM29.3341 9.62732L29.3322 9.64441C29.1049 10.8961 28.4355 13.1497 26.5074 14.1725C26.491 14.181 26.4736 14.1899 26.4558 14.1984C25.7944 14.5376 24.8862 14.7741 24.068 14.744C23.4891 14.7193 22.916 14.6172 22.3641 14.4407L21.8841 14.2358L22.4129 13.9603L24.3979 12.9116C24.5222 12.8474 24.6268 12.7508 24.7007 12.632C24.7745 12.5132 24.8149 12.3767 24.8175 12.2368C24.8219 12.126 24.8827 12.094 24.8406 11.9898C24.8305 11.9654 24.8194 11.9407 24.8067 11.917L24.796 11.8977C24.7945 11.8949 24.7928 11.8922 24.7909 11.8898C24.6535 11.652 24.4071 11.5832 24.1297 11.5731C23.9901 11.5687 23.8517 11.6015 23.7289 11.6681L21.7571 12.7048L21.3841 12.9008C21.3841 12.9008 21.7118 10.3828 23.4873 9.49084C23.6256 9.42118 23.7504 9.31985 23.8926 9.24386C24.5924 8.87338 25.4046 8.70176 26.3048 8.73437C27.4007 8.77332 28.4083 9.102 29.0986 9.39458C29.1429 9.41358 29.1859 9.43131 29.2274 9.44999L29.3383 9.49559L29.3341 9.62732Z" fill="white"/><path d="M5.50206 20.9294H6.48366C7.38769 20.9294 7.9833 21.4588 7.9833 22.2416C7.9833 23.0243 7.37787 23.5427 6.48334 23.5427H5.50174L5.50206 20.9294ZM6.48366 21.4044H6.09735V23.0582H6.48334C7.01246 23.0582 7.3766 22.7384 7.3766 22.2311C7.3766 21.7239 7.01246 21.4155 6.48334 21.4044H6.48366Z" fill="white"/><path d="M9.66972 20.8414C10.5297 20.8414 11.1139 21.4148 11.1139 22.2416C11.1139 23.0683 10.5297 23.6307 9.66972 23.6307C8.80971 23.6307 8.22549 23.0683 8.22549 22.2416C8.22549 21.4148 8.80971 20.8414 9.66972 20.8414ZM9.66972 23.1016C10.1548 23.1016 10.4965 22.7378 10.4965 22.2305C10.4965 21.7232 10.1548 21.3594 9.66972 21.3594C9.18462 21.3594 8.84296 21.7232 8.84296 22.2305C8.84296 22.7488 9.18462 23.1016 9.66972 23.1016V23.1016Z" fill="white"/><path d="M11.4778 23.5427V20.9294H12.0959V23.0133H13.1874V23.5427H11.4778Z" fill="white"/><path d="M13.5066 23.5427V20.9294H14.124V23.0133H15.2155V23.5427H13.5066Z" fill="white"/><path d="M17.9498 23.5427H17.2994L17.1452 23.0677H16.0977L15.9543 23.5427H15.3039L16.1857 20.9294H17.079L17.9498 23.5427ZM16.2301 22.6276H17.0239L16.6268 21.4588L16.2301 22.6276Z" fill="white"/><path d="M18.2034 20.9294H19.47C20.0764 20.9294 20.4953 21.2825 20.4953 21.8005C20.4944 21.9696 20.4378 22.1337 20.3341 22.2673C20.2304 22.4009 20.0855 22.4965 19.9218 22.5392L20.552 23.531H19.8683L19.3503 22.6159H18.8209V23.531H18.2034V20.9294ZM18.8088 21.3926V22.1865H19.3601C19.647 22.1865 19.8667 22.032 19.8667 21.7894C19.8667 21.5361 19.6451 21.3816 19.3601 21.3816L18.8088 21.3926Z" fill="white"/></svg>
