<svg xmlns="http://www.w3.org/2000/svg" width="32" height="32"><path fill-rule="evenodd" clip-rule="evenodd" d="M16 0C24.837 0 32 7.163 32 16C32 24.836 24.837 32 16 32C7.164 32 0 24.836 0 16C0 7.163 7.164 0 16 0Z" fill="#FFC404"/><path fill-rule="evenodd" clip-rule="evenodd" d="M19.374 12.616H16.564V12.402C16.52 11.545 16.811 10.704 17.376 10.059C17.928 9.46901 18.708 9.14901 19.515 9.18201C19.835 9.19601 20.147 9.08401 20.388 8.87201C20.611 8.67601 20.736 8.38901 20.728 8.09101C20.735 7.79201 20.608 7.50601 20.383 7.31001C20.143 7.09801 19.829 6.98801 19.51 7.00201C18.533 6.98201 17.569 7.22401 16.718 7.70201C15.906 8.16101 15.246 8.84601 14.817 9.67401C14.35 10.526 14.116 11.487 14.142 12.458V12.615H13.118C12.822 12.601 12.532 12.704 12.311 12.902C12.103 13.097 11.99 13.373 12.002 13.658C11.995 13.931 12.108 14.193 12.312 14.374C12.534 14.571 12.823 14.673 13.119 14.658H14.144V16.163H13.118C12.823 16.151 12.534 16.252 12.312 16.447C12.104 16.641 11.992 16.914 12.001 17.197C11.994 17.469 12.107 17.729 12.312 17.908C12.532 18.106 12.822 18.209 13.118 18.196H14.144V23.113C14.13 23.439 14.253 23.756 14.483 23.986C14.7 24.203 14.996 24.3241 15.304 24.322C15.645 24.342 15.981 24.22 16.232 23.986C16.459 23.753 16.579 23.437 16.564 23.113V18.196H17.838C18.136 18.209 18.428 18.106 18.65 17.908C18.851 17.727 18.963 17.467 18.955 17.197C18.968 16.91 18.857 16.632 18.65 16.433C18.424 16.243 18.134 16.146 17.838 16.162H16.564V14.658H19.374C19.67 14.673 19.96 14.571 20.182 14.374C20.385 14.193 20.499 13.931 20.491 13.658C20.504 13.372 20.391 13.095 20.182 12.899C19.96 12.703 19.67 12.601 19.374 12.616Z" fill="white"/></svg>
