<svg xmlns="http://www.w3.org/2000/svg" width="32" height="32"><circle cx="16" cy="16" r="16" fill="white"/><path d="M5.816 16.872H4.056C4.024 16.872 4 16.896 4 16.928V18.68C4 18.712 4.024 18.736 4.056 18.736H5.808C5.84 18.736 5.864 18.712 5.864 18.68V16.928C5.872 16.896 5.848 16.872 5.816 16.872ZM12.248 16.872H10.496C10.464 16.872 10.44 16.896 10.44 16.928V22.352C10.44 22.384 10.464 22.408 10.496 22.408H12.248C12.28 22.408 12.304 22.384 12.304 22.352V16.928C12.312 16.896 12.28 16.872 12.248 16.872ZM22.968 15.12H24.72C24.752 15.12 24.776 15.096 24.776 15.064V13.312C24.776 13.28 24.752 13.256 24.72 13.256H22.968C22.936 13.256 22.912 13.28 22.912 13.312V15.064C22.912 15.096 22.936 15.12 22.968 15.12ZM9.64 12.312H15.064C15.096 12.312 15.12 12.288 15.12 12.256V10.504C15.12 10.472 15.096 10.448 15.064 10.448H9.64C9.608 10.448 9.584 10.472 9.584 10.504V12.256C9.584 12.288 9.608 12.312 9.64 12.312ZM13.312 9.09599H15.064C15.096 9.09599 15.12 9.07199 15.12 9.03999V7.27999C15.12 7.24799 15.096 7.224 15.064 7.224H13.312C13.28 7.224 13.256 7.24799 13.256 7.27999V9.03999C13.256 9.07199 13.28 9.09599 13.312 9.09599ZM19.752 15.12H21.504C21.536 15.12 21.56 15.096 21.56 15.064V9.63999C21.56 9.60799 21.536 9.58399 21.504 9.58399H19.752C19.72 9.58399 19.696 9.60799 19.696 9.63999V15.064C19.688 15.096 19.72 15.12 19.752 15.12ZM13.312 5.88H15.064C15.096 5.88 15.12 5.856 15.12 5.824V4.064C15.12 4.032 15.096 4.008 15.064 4.008H13.312C13.28 4.008 13.256 4.032 13.256 4.064V5.81599C13.256 5.84799 13.28 5.88 13.312 5.88ZM9.032 16.872H7.28C7.248 16.872 7.224 16.896 7.224 16.928V18.68C7.224 18.712 7.248 18.736 7.28 18.736H9.032C9.064 18.736 9.088 18.712 9.088 18.68V16.928C9.088 16.896 9.064 16.872 9.032 16.872ZM26.064 16.496H18.376C18.344 16.496 18.32 16.52 18.32 16.552V18.256C18.32 18.288 18.344 18.312 18.376 18.312H26.064C26.096 18.312 26.12 18.288 26.12 18.256V16.552C26.12 16.52 26.096 16.496 26.064 16.496ZM22.36 19.688H16.936C16.904 19.688 16.88 19.712 16.88 19.744V21.496C16.88 21.528 16.904 21.552 16.936 21.552H22.36C22.392 21.552 22.416 21.528 22.416 21.496V19.744C22.416 19.712 22.392 19.688 22.36 19.688ZM27.944 13.248H26.192C26.16 13.248 26.136 13.272 26.136 13.304V15.056C26.136 15.088 26.16 15.112 26.192 15.112H27.944C27.976 15.112 28 15.088 28 15.056V13.304C28 13.272 27.976 13.248 27.944 13.248ZM13.68 13.744C13.68 13.712 13.656 13.688 13.624 13.688H5.936C5.904 13.688 5.88 13.712 5.88 13.744V15.448C5.88 15.48 5.904 15.504 5.936 15.504H13.624C13.656 15.504 13.68 15.48 13.68 15.448V13.744ZM18.688 22.904H16.936C16.904 22.904 16.88 22.928 16.88 22.96V24.72C16.88 24.752 16.904 24.776 16.936 24.776H18.688C18.72 24.776 18.744 24.752 18.744 24.72V22.96C18.744 22.928 18.72 22.904 18.688 22.904ZM15.44 18.32H13.736C13.704 18.32 13.68 18.344 13.68 18.376V26.056C13.68 26.088 13.704 26.112 13.736 26.112H15.44C15.472 26.112 15.496 26.088 15.496 26.056V18.376C15.504 18.352 15.472 18.32 15.44 18.32ZM18.32 13.624V5.93599C18.32 5.90399 18.296 5.88 18.264 5.88H16.56C16.528 5.88 16.504 5.90399 16.504 5.93599V13.632C16.504 13.664 16.528 13.688 16.56 13.688H18.264C18.296 13.688 18.32 13.656 18.32 13.624ZM18.688 26.12H16.936C16.904 26.12 16.88 26.144 16.88 26.176V27.928C16.88 27.96 16.904 27.984 16.936 27.984H18.688C18.72 27.984 18.744 27.96 18.744 27.928V26.176C18.744 26.152 18.72 26.12 18.688 26.12Z" fill="#009EDE"/></svg>
