<svg xmlns="http://www.w3.org/2000/svg" width="32" height="32"><path d="M16.5192 0L13.567 1.70258L5.52947 6.33332L2.57721 8.03591V11.4264V20.6438V24.0343L5.52947 25.7222L13.5744 30.3162L16.5266 32.0041L19.479 30.3016L27.5017 25.6709L30.454 23.9756V20.5851V11.3603V7.96985L27.5017 6.28195L19.4568 1.68791L16.5046 0H16.5192Z" fill="white"/><path d="M16.5192 6.78098L24.5642 11.375V20.5998L16.5414 25.2232L8.4965 20.6365V11.4117L16.5192 6.78098ZM16.5192 0L13.567 1.70258L5.52947 6.33332L2.57721 8.03591V11.4264V20.6438V24.0343L5.52947 25.7222L13.5744 30.3162L16.5266 32.0041L19.479 30.3016L27.5017 25.6709L30.454 23.9756V20.5851V11.3603V7.96985L27.5017 6.28195L19.4568 1.68791L16.5046 0H16.5192Z" fill="#375BD2"/></svg>
