<svg xmlns="http://www.w3.org/2000/svg" width="32" height="32"><path d="M12.9477 28.78C5.90074 28.78 0.167847 23.0468 0.167847 16.0001C0.167847 8.95349 5.89915 3.21997 12.9477 3.21997C14.9685 3.21385 16.9613 3.69227 18.7591 4.61511C20.1709 5.34029 21.4368 6.31983 22.493 7.50451C22.5678 7.46113 22.6437 7.41902 22.7201 7.37786C23.7625 6.82341 24.9322 6.54222 26.1965 6.54222C26.2985 6.54222 26.4023 6.54412 26.5053 6.54792C28.8453 6.6312 30.4317 7.26798 30.8433 7.5061L31.28 7.76353C31.4691 7.87501 31.6213 8.03952 31.7179 8.23669C31.8144 8.43385 31.851 8.655 31.823 8.87274L31.7952 9.08775L31.7929 9.12099C31.5735 12.3878 30.1318 14.8868 27.7332 16.1575C27.5879 16.2341 27.453 16.3 27.3187 16.3602C26.8012 16.5917 26.2572 16.759 25.6991 16.8586C25.2558 23.5066 19.7059 28.78 12.9477 28.78Z" fill="white"/><path d="M24.6063 16.0005C24.6063 22.4395 19.3867 27.6594 12.9477 27.6594C6.50867 27.6594 1.28906 22.4395 1.28906 16.0005C1.28906 9.56146 6.50867 4.34186 12.9477 4.34186C19.3867 4.34186 24.6063 9.56273 24.6063 16.0005Z" fill="#0083FF"/><path d="M12.3514 6.12015H12.2618C12.0105 6.12015 11.8068 6.32387 11.8068 6.57517V6.66478C11.8068 6.91608 12.0105 7.1198 12.2618 7.1198H12.3514C12.6027 7.1198 12.8064 6.91608 12.8064 6.66478V6.57517C12.8064 6.32387 12.6027 6.12015 12.3514 6.12015Z" fill="white"/><path d="M12.2618 7.86996H12.3511C12.4718 7.86996 12.5875 7.91791 12.6729 8.00324C12.7582 8.08857 12.8061 8.20431 12.8061 8.32499V8.41461C12.8061 8.47436 12.7944 8.53353 12.7715 8.58874C12.7486 8.64394 12.7151 8.69411 12.6729 8.73636C12.6306 8.77861 12.5805 8.81213 12.5253 8.835C12.47 8.85786 12.4109 8.86963 12.3511 8.86963H12.2615C12.2018 8.86963 12.1426 8.85786 12.0874 8.835C12.0322 8.81213 11.982 8.77861 11.9398 8.73636C11.8975 8.69411 11.864 8.64394 11.8411 8.58874C11.8183 8.53353 11.8065 8.47436 11.8065 8.41461V8.32531C11.8065 8.20455 11.8545 8.08873 11.9399 8.00333C12.0252 7.91794 12.1411 7.86996 12.2618 7.86996V7.86996Z" fill="white"/><path d="M7.35222 13.1187H7.26261C7.01131 13.1187 6.80759 13.3224 6.80759 13.5737V13.6633C6.80759 13.9146 7.01131 14.1183 7.26261 14.1183H7.35222C7.60352 14.1183 7.80724 13.9146 7.80724 13.6633V13.5737C7.80724 13.3224 7.60352 13.1187 7.35222 13.1187Z" fill="white"/><path d="M9.10201 13.1187H9.01239C8.76109 13.1187 8.55737 13.3224 8.55737 13.5737V13.6633C8.55737 13.9146 8.76109 14.1183 9.01239 14.1183H9.10201C9.35331 14.1183 9.55703 13.9146 9.55703 13.6633V13.5737C9.55703 13.3224 9.35331 13.1187 9.10201 13.1187Z" fill="white"/><path d="M10.2622 9.61942H12.3521C12.4728 9.61942 12.5885 9.66735 12.6738 9.75269C12.7592 9.83802 12.8071 9.95376 12.8071 10.0744V10.1644C12.8071 10.2851 12.7591 10.4009 12.6737 10.4863C12.5883 10.5717 12.4725 10.6197 12.3518 10.6197H10.2619C10.1412 10.6195 10.0256 10.5715 9.94033 10.4861C9.85508 10.4007 9.80719 10.285 9.80719 10.1644V10.0751C9.80719 9.95431 9.85516 9.83849 9.94055 9.7531C10.0259 9.6677 10.1418 9.61973 10.2625 9.61973L10.2622 9.61942Z" fill="white"/><path d="M10.7622 13.1187H10.8515C10.9722 13.1187 11.0879 13.1666 11.1732 13.252C11.2586 13.3373 11.3065 13.453 11.3065 13.5737V15.6636C11.3061 15.784 11.258 15.8994 11.1727 15.9844C11.0874 16.0695 10.9719 16.1172 10.8515 16.1173H10.7622C10.6415 16.1173 10.5258 16.0694 10.4404 15.9841C10.3551 15.8987 10.3072 15.783 10.3072 15.6623V13.5724C10.3076 13.452 10.3557 13.3366 10.441 13.2516C10.5262 13.1666 10.6417 13.1188 10.7622 13.1187V13.1187Z" fill="white"/><path d="M18.3503 12.8688H15.0113C14.76 12.8688 14.5562 13.0726 14.5562 13.3239V13.4135C14.5562 13.6648 14.76 13.8685 15.0113 13.8685H18.3503C18.6016 13.8685 18.8053 13.6648 18.8053 13.4135V13.3239C18.8053 13.0726 18.6016 12.8688 18.3503 12.8688Z" fill="white"/><path d="M8.26258 11.3676H11.6016C11.7223 11.3676 11.838 11.4156 11.9234 11.5009C12.0087 11.5862 12.0566 11.702 12.0566 11.8226V11.9119C12.0566 12.0327 12.0087 12.1485 11.9233 12.2339C11.8379 12.3193 11.7221 12.3673 11.6013 12.3673H8.26258C8.1419 12.3673 8.02616 12.3193 7.94083 12.234C7.8555 12.1487 7.80756 12.0329 7.80756 11.9122V11.823C7.80756 11.7022 7.85549 11.5865 7.94081 11.5011C8.02613 11.4157 8.14187 11.3677 8.26258 11.3676V11.3676Z" fill="white"/><path d="M17.5106 11.119H17.5999C17.7205 11.119 17.8363 11.167 17.9216 11.2523C18.0069 11.3377 18.0549 11.4534 18.0549 11.5741V11.6634C18.0549 11.7841 18.0069 11.8999 17.9215 11.9853C17.8361 12.0707 17.7203 12.1187 17.5995 12.1187H17.5106C17.3899 12.1187 17.2741 12.0708 17.1888 11.9854C17.1035 11.9001 17.0555 11.7844 17.0555 11.6637V11.5744C17.0555 11.4537 17.1035 11.3379 17.1888 11.2525C17.2741 11.1671 17.3899 11.1191 17.5106 11.119V11.119Z" fill="white"/><path d="M16.3501 14.6186H14.2615C14.01 14.6186 13.8061 14.8225 13.8061 15.074V15.1629C13.8061 15.4144 14.01 15.6183 14.2615 15.6183H16.3501C16.6015 15.6183 16.8054 15.4144 16.8054 15.1629V15.074C16.8054 14.8225 16.6015 14.6186 16.3501 14.6186Z" fill="white"/><path d="M14.3508 16.3681H14.2611C14.0098 16.3681 13.8061 16.5718 13.8061 16.8231V16.9127C13.8061 17.164 14.0098 17.3678 14.2611 17.3678H14.3508C14.6021 17.3678 14.8058 17.164 14.8058 16.9127V16.8231C14.8058 16.5718 14.6021 16.3681 14.3508 16.3681Z" fill="white"/><path d="M14.3508 18.1179H14.2611C14.0098 18.1179 13.8061 18.3216 13.8061 18.5729V18.6625C13.8061 18.9138 14.0098 19.1175 14.2611 19.1175H14.3508C14.6021 19.1175 14.8058 18.9138 14.8058 18.6625V18.5729C14.8058 18.3216 14.6021 18.1179 14.3508 18.1179Z" fill="white"/><path d="M14.0116 7.12012H14.1009C14.2216 7.12012 14.3373 7.16806 14.4227 7.25339C14.508 7.33872 14.5559 7.45446 14.5559 7.57514V10.9139C14.5555 11.0343 14.5074 11.1497 14.4221 11.2347C14.3368 11.3198 14.2213 11.3675 14.1009 11.3676H14.0116C13.8908 11.3676 13.775 11.3197 13.6896 11.2343C13.6042 11.1489 13.5563 11.0331 13.5563 10.9123V7.57514C13.5564 7.45443 13.6044 7.3387 13.6898 7.25337C13.7751 7.16805 13.8909 7.12012 14.0116 7.12012V7.12012Z" fill="white"/><path d="M12.6013 13.8685H12.5117C12.2604 13.8685 12.0566 14.0722 12.0566 14.3235V17.6626C12.0566 17.9139 12.2604 18.1176 12.5117 18.1176H12.6013C12.8526 18.1176 13.0563 17.9139 13.0563 17.6626V14.3235C13.0563 14.0722 12.8526 13.8685 12.6013 13.8685Z" fill="white"/><path d="M15.8504 9.11975H15.7614C15.5099 9.11975 15.3061 9.32361 15.3061 9.57509V11.6637C15.3061 11.9152 15.5099 12.119 15.7614 12.119H15.8504C16.1019 12.119 16.3057 11.9152 16.3057 11.6637V9.57509C16.3057 9.32361 16.1019 9.11975 15.8504 9.11975Z" fill="white"/><path d="M21.1286 14.131L29.2265 9.44621C29.2265 9.44621 29.4032 7.7702 26.2741 7.80249C23.145 7.83479 21.3737 9.88223 21.1365 11.7226C20.8993 13.5629 21.1286 14.131 21.1286 14.131Z" fill="#006E36"/><path d="M29.356 9.24197L21.2568 13.9283C21.2568 13.9283 21.0804 15.604 24.2092 15.5717C27.338 15.5394 29.1118 13.492 29.3481 11.6517C29.5843 9.8113 29.356 9.24324 29.356 9.24324" fill="#00B22B"/><path d="M30.2841 8.47662C30.0855 8.36231 28.6856 7.74833 26.465 7.66727C25.2836 7.62515 24.1981 7.86074 23.2463 8.36706C22.9387 8.53011 22.6466 8.72089 22.3736 8.93702C20.3689 10.5174 20.3154 12.4645 20.1834 13.5895L18.5967 14.3653C18.456 14.4244 18.3401 14.5304 18.2687 14.6652C18.1973 14.8001 18.1747 14.9554 18.2049 15.105C18.235 15.2546 18.316 15.3891 18.434 15.4858C18.5521 15.5825 18.6999 15.6353 18.8525 15.6354C18.9531 15.6354 19.0524 15.6129 19.1432 15.5695V15.5695L19.1651 15.5578L19.1692 15.5556L19.5301 15.3656L20.2603 14.9812L20.6137 14.8118C21.4778 15.2551 22.5943 15.7934 24.1307 15.8501C25.1079 15.8846 26.0242 15.7114 26.8602 15.3371C26.978 15.2842 27.0942 15.2269 27.2085 15.1667C30.5016 13.4217 30.6422 9.45411 30.6792 8.97597L30.7109 8.72867L30.2841 8.47662ZM29.3341 9.6232L29.3322 9.64029C29.1049 10.892 28.4355 13.1456 26.5074 14.1683C26.491 14.1769 26.4736 14.1858 26.4558 14.1943C25.7944 14.5334 24.8862 14.77 24.068 14.7399C23.4891 14.7151 22.916 14.6131 22.3641 14.4365L21.8841 14.2317L22.4129 13.9562L24.3979 12.9075C24.5222 12.8433 24.6268 12.7466 24.7007 12.6279C24.7745 12.5091 24.8149 12.3725 24.8175 12.2327C24.8219 12.1219 24.8827 12.0899 24.8406 11.9857C24.8305 11.9613 24.8194 11.9366 24.8067 11.9129L24.796 11.8936C24.7945 11.8907 24.7928 11.8881 24.7909 11.8856C24.6535 11.6478 24.4071 11.5791 24.1297 11.569C23.9901 11.5646 23.8517 11.5974 23.7289 11.664L21.7571 12.7007L21.3841 12.8967C21.3841 12.8967 21.7118 10.3787 23.4873 9.48672C23.6256 9.41706 23.7504 9.31573 23.8926 9.23974C24.5924 8.86926 25.4046 8.69764 26.3048 8.73025C27.4007 8.7692 28.4083 9.09788 29.0986 9.39046C29.1429 9.40946 29.1859 9.42719 29.2274 9.44587L29.3383 9.49147L29.3341 9.6232Z" fill="white"/><path d="M8.23059 22.9008V24.3131H7.2569V20.2869H8.83443C9.31299 20.2869 9.67756 20.4056 9.92813 20.6428C10.1787 20.8801 10.3039 21.2 10.3037 21.6026C10.3078 21.8365 10.2499 22.0674 10.1358 22.2717C10.0192 22.4715 9.84567 22.6321 9.63745 22.733C9.41727 22.8449 9.1496 22.9008 8.83443 22.9008H8.23059ZM9.31257 21.6026C9.31257 21.2496 9.11709 21.0731 8.72614 21.0728H8.23059V22.1209H8.72614C9.1173 22.1209 9.31278 21.9482 9.31257 21.6026Z" fill="white"/><path d="M12.8489 24.3131L11.9778 22.7932H11.7562V24.3131H10.7818V20.2869H12.4442C12.7632 20.2869 13.0327 20.342 13.2526 20.4522C13.4594 20.5501 13.6321 20.7078 13.7482 20.905C13.8609 21.1059 13.9182 21.3333 13.9141 21.5636C13.9141 21.856 13.8334 22.1047 13.6719 22.3097C13.5104 22.5146 13.276 22.655 12.9686 22.7308L13.9252 24.314L12.8489 24.3131ZM11.7555 22.1263H12.3594C12.5529 22.1263 12.6952 22.0841 12.7862 21.9997C12.8772 21.9152 12.9228 21.7886 12.923 21.6197C12.923 21.4601 12.8764 21.3348 12.7834 21.2438C12.6903 21.1529 12.5489 21.1073 12.3594 21.107H11.7555V22.1263Z" fill="white"/><path d="M17.3503 20.4893C17.6568 20.6627 17.9099 20.9168 18.0821 21.2239C18.2607 21.5371 18.35 21.8912 18.35 22.2859C18.3561 22.6585 18.2631 23.026 18.0805 23.3508C17.9073 23.6589 17.6533 23.9139 17.3459 24.0883C17.0311 24.2619 16.6775 24.353 16.3181 24.353C15.9586 24.353 15.605 24.2619 15.2902 24.0883C14.9828 23.9139 14.7288 23.6589 14.5556 23.3508C14.3727 23.0261 14.2794 22.6586 14.2852 22.2859C14.2852 21.8912 14.3753 21.5371 14.5556 21.2239C14.7295 20.917 14.9834 20.6631 15.2902 20.4893C15.606 20.3156 15.9605 20.2245 16.3209 20.2245C16.6813 20.2245 17.0358 20.3156 17.3516 20.4893H17.3503ZM15.5565 21.4392C15.3687 21.6463 15.2747 21.9282 15.2747 22.285C15.2747 22.6381 15.3687 22.919 15.5565 23.1276C15.7444 23.3361 15.9977 23.4405 16.3165 23.4407C16.6316 23.4407 16.8841 23.3363 17.0739 23.1276C17.2637 22.9188 17.3587 22.6379 17.3589 22.285C17.3589 21.932 17.2649 21.651 17.0771 21.442C16.8892 21.2331 16.6359 21.1287 16.3171 21.1289C15.9981 21.1295 15.7446 21.2333 15.5565 21.4401V21.4392Z" fill="white"/></svg>
