<svg xmlns="http://www.w3.org/2000/svg" width="32" height="32"><ellipse cx="16.032" cy="16.064" rx="16" ry="16" fill="white"/><path d="M5.97333 5.97165V16.018L10.9036 11.0877L5.97333 5.97165Z" fill="url(#paint0_linear)"/><path d="M21.4128 11.0877L26.3431 16.018V5.97165L21.4128 11.0877Z" fill="url(#paint1_linear)"/><path d="M6.66156 17.0534L15.8644 30.5652L11.4457 12.2723L6.66156 17.0534Z" fill="url(#paint2_linear)"/><path d="M16.5008 30.5652L25.7005 17.0534L20.9195 12.2723L16.5008 30.5652Z" fill="url(#paint3_linear)"/><path d="M19.811 12.0744H16.175H12.5389L14.3569 19.9982L16.175 27.9189L17.993 19.9982L19.811 12.0744Z" fill="url(#paint4_linear)"/><defs><linearGradient id="paint0_linear" x1="5.97333" y1="10.9948" x2="10.9036" y2="10.9948" gradientUnits="userSpaceOnUse"><stop stop-color="#A71E22"/><stop offset="0.1551" stop-color="#B81F24"/><stop offset="0.4908" stop-color="#DA2126"/><stop offset="0.6826" stop-color="#EC2227"/></linearGradient><linearGradient id="paint1_linear" x1="21.4128" y1="10.9948" x2="26.3431" y2="10.9948" gradientUnits="userSpaceOnUse"><stop stop-color="#A71E22"/><stop offset="0.1551" stop-color="#B81F24"/><stop offset="0.4908" stop-color="#DA2126"/><stop offset="0.6826" stop-color="#EC2227"/></linearGradient><linearGradient id="paint2_linear" x1="6.66156" y1="21.4188" x2="15.8644" y2="21.4188" gradientUnits="userSpaceOnUse"><stop stop-color="#A71E22"/><stop offset="0.1551" stop-color="#B81F24"/><stop offset="0.4908" stop-color="#DA2126"/><stop offset="0.6826" stop-color="#EC2227"/></linearGradient><linearGradient id="paint3_linear" x1="16.5008" y1="21.4188" x2="25.7005" y2="21.4188" gradientUnits="userSpaceOnUse"><stop stop-color="#A71E22"/><stop offset="0.1551" stop-color="#B81F24"/><stop offset="0.4908" stop-color="#DA2126"/><stop offset="0.6826" stop-color="#EC2227"/></linearGradient><linearGradient id="paint4_linear" x1="12.5389" y1="19.9966" x2="19.811" y2="19.9966" gradientUnits="userSpaceOnUse"><stop stop-color="#A71E22"/><stop offset="0.1551" stop-color="#B81F24"/><stop offset="0.4908" stop-color="#DA2126"/><stop offset="0.6826" stop-color="#EC2227"/></linearGradient></defs></svg>
