<svg xmlns="http://www.w3.org/2000/svg" width="32" height="32"><path d="M16 32C24.8366 32 32 24.8366 32 16C32 7.16344 24.8366 0 16 0C7.16344 0 0 7.16344 0 16C0 24.8366 7.16344 32 16 32Z" fill="#ECFAF6"/><path fill-rule="evenodd" clip-rule="evenodd" d="M16 31.9C24.7813 31.9 31.9 24.7813 31.9 16C31.9 7.21867 24.7813 0.1 16 0.1C7.21867 0.1 0.1 7.21867 0.1 16C0.1 24.7813 7.21867 31.9 16 31.9ZM16 32C24.8365 32 32 24.8365 32 16C32 7.16347 24.8365 0 16 0C7.16347 0 0 7.16347 0 16C0 24.8365 7.16347 32 16 32Z" fill="#00D9A1"/><path d="M16 31C24.2843 31 31 24.2843 31 16C31 7.71573 24.2843 1 16 1C7.71573 1 1 7.71573 1 16C1 24.2843 7.71573 31 16 31Z" fill="#00D9A1"/><path fill-rule="evenodd" clip-rule="evenodd" d="M16 30.7C24.1186 30.7 30.7 24.1186 30.7 16C30.7 7.88144 24.1186 1.3 16 1.3C7.88144 1.3 1.3 7.88144 1.3 16C1.3 24.1186 7.88144 30.7 16 30.7ZM16 31C24.2843 31 31 24.2843 31 16C31 7.71573 24.2843 1 16 1C7.71573 1 1 7.71573 1 16C1 24.2843 7.71573 31 16 31Z" fill="white"/><path fill-rule="evenodd" clip-rule="evenodd" d="M7.55377 7.46875C8.76737 7.46875 9.75121 8.45259 9.75121 9.66619V17.1866C9.75121 20.6456 12.5552 23.4496 16.0141 23.4496C19.4731 23.4496 22.2771 20.6456 22.2771 17.1866V9.66619C22.2771 8.45259 23.2609 7.46875 24.4745 7.46875V17.1866C24.4745 21.8592 20.6867 25.647 16.0141 25.647C11.3416 25.647 7.55377 21.8592 7.55377 17.1866V7.46875Z" fill="white"/><path fill-rule="evenodd" clip-rule="evenodd" d="M11.3316 11.0352C12.3321 11.0352 13.1431 11.8463 13.1431 12.8468V13.146C13.9353 12.5307 14.9305 12.1644 16.0112 12.1644C18.5956 12.1644 20.6908 14.2595 20.6908 16.844H20.6909C20.6909 19.4285 18.5957 21.5237 16.0112 21.5237C13.4267 21.5237 11.3316 19.4285 11.3315 16.8441H11.3315C11.3315 16.7946 11.3322 16.7453 11.3338 16.6962H11.3316V11.0352ZM13.1429 16.844H13.1431C13.1431 18.4281 14.4272 19.7122 16.0112 19.7122C17.5953 19.7122 18.8794 18.4281 18.8794 16.8441H18.8794C18.8794 15.26 17.5952 13.9759 16.0112 13.9759C14.4271 13.9759 13.143 15.2599 13.1429 16.844Z" fill="white"/><path d="M20.7801 10.4173C20.7801 11.0129 20.2973 11.4956 19.7018 11.4956C19.1063 11.4956 18.6235 11.0129 18.6235 10.4173C18.6235 9.82182 19.1063 9.33905 19.7018 9.33905C20.2973 9.33905 20.7801 9.82182 20.7801 10.4173Z" fill="white"/></svg>
