<svg version="1.1" id="Layer_1" xmlns="http://www.w3.org/2000/svg" x="0" y="0" viewBox="0 0 180 180" style="enable-background:new 0 0 180 180" xml:space="preserve"><style>.st1{fill:#5928b1}.st2{fill:#764bc4}.st3{fill:#bba5e1}</style><circle cx="90" cy="90" r="90" style="fill:#fff"/><path class="st1" d="M-86-71.5c-13.7 3.9-33.9 11.9-52.4 28.5-18.6 17.3-6 32.7-5.8 32.9 0 0-6.8-12.4 9.7-27.7.2-.2 21.2-18.2 51.8-26.8 3.9-1.1 7.8-2 11.7-2.7h.3l4.9-7.9-1.2.1c-.1-.1-7.8.5-19 3.6z" transform="matrix(.91867 0 0 .91867 203.91 113.154)"/><path class="st2" d="M-64.9-93.6c-3.1-2.6-6.3-4.7-6.3-4.7l-.2-.1h-.2c-.1 0-8.6 1-20.3 4.3-20.9 5.9-49 18-64.3 42.1-7.2 11-1.4 24.1-1.4 24.1l-.2-3.3c0-.4-1-35.7 72.1-56.3 6.4-1.8 13.3-3.5 20.4-5l1.3-.3-.9-.8z" transform="matrix(.91867 0 0 .91867 203.91 113.154)"/><path class="st2" d="M-60.5-89c-.1 0-9.7 1-23.1 4.8-14.2 4-34.9 11.8-52.7 26-10.5 8.1-17.2 17.9-18.3 26.8-.5 4.4 4.6 13.6 4.6 13.6l-1.1-3.3c0-.1-4.7-15.1 18.7-32.5 13.1-9.7 26.7-16.4 42.9-21 8.4-2.4 16.4-3.9 25.2-5.5l.3-.1.1-.3c.7-1.4 3.9-7.6 3.9-7.7l.5-1-1 .2z" transform="matrix(.91867 0 0 .91867 203.91 113.154)"/><path class="st3" d="M-162.8-43.6c.9-14 11.6-27 31.9-38.5 10.7-6.6 22.7-11.8 35.5-15.4 10.9-3.1 20.2-4 20.2-4l-7.4-5.3c-.1 0-6.9.8-16.7 3.6-62.8 17.7-70.5 48.2-69.8 60.4 1.2 21.4 26.6 36.6 26.6 36.6s-21.6-16.5-20.3-37.4z" transform="matrix(.91867 0 0 .91867 203.91 113.154)"/><g><path class="st1" d="M262.3 160.3c-13.7 3.9-33.9 11.9-52.4 28.5-18.6 17.3-6 32.7-5.8 32.9 0 0-6.8-12.4 9.7-27.7.2-.2 21.2-18.2 51.8-26.8 3.9-1.1 7.8-2 11.7-2.7h.3l4.9-7.9-1.2.1c-.1-.2-7.8.4-19 3.6z" transform="matrix(-.91867 0 0 -.91867 296.075 279.749)"/><path class="st2" d="M283.4 138.1c-3.1-2.6-6.3-4.7-6.3-4.7l-.2-.1h-.2c-.1 0-8.6 1-20.3 4.3-20.9 5.9-49 18-64.3 42.1-7.2 11-1.4 24.1-1.4 24.1l-.2-3.3c0-.4-1-35.7 72.1-56.3 6.4-1.8 13.3-3.5 20.4-5l1.3-.3-.9-.8z" transform="matrix(-.91867 0 0 -.91867 296.075 279.749)"/><path class="st2" d="M287.8 142.8c-.1 0-9.7 1-23.1 4.8-14.2 4-34.9 11.8-52.7 26-10.5 8.1-17.2 17.9-18.3 26.8-.5 4.4 4.6 13.6 4.6 13.6l-1.1-3.3c0-.1-4.7-15.1 18.7-32.5 13.1-9.7 26.7-16.4 42.9-21 8.4-2.4 16.4-3.9 25.2-5.5l.3-.1.1-.3c.7-1.4 3.9-7.6 3.9-7.7l.5-1-1 .2z" transform="matrix(-.91867 0 0 -.91867 296.075 279.749)"/><path class="st3" d="M185.5 188.2c.9-14 11.6-27 31.9-38.5 10.7-6.6 22.7-11.8 35.5-15.4 10.9-3.1 20.2-4 20.2-4l-7.4-5.3c-.1 0-6.9.8-16.7 3.6-62.8 17.7-70.5 48.2-69.8 60.4 1.2 21.4 26.6 36.6 26.6 36.6s-21.6-16.5-20.3-37.4z" transform="matrix(-.91867 0 0 -.91867 296.075 279.749)"/></g></svg>