<svg xmlns="http://www.w3.org/2000/svg" width="32" height="32"><circle cx="16" cy="16" r="16" fill="black"/><path fill-rule="evenodd" clip-rule="evenodd" d="M10.9147 15.5953C11.0169 13.0384 11.9374 11.1974 15.3126 10.8905C15.3637 10.8905 15.4148 10.8905 15.466 10.8905H23.6481L24.9777 9.04956C25.2334 8.69159 24.9777 8.23134 24.5686 8.23134H6.51675C6.10765 8.23134 5.85195 8.74273 6.10765 9.04956L10.9147 15.5953ZM18.1252 18.4079L22.2674 12.7827H15.466C14.9546 12.7827 14.4943 12.3736 14.4943 11.811C12.0397 12.3736 11.4772 13.6009 11.0681 15.5953H16.0796H16.1308H16.1819C18.79 15.6976 18.8411 16.976 18.1252 18.4079ZM4.26666 7.82224L15.1591 29.4026C15.3637 29.7606 15.8751 29.7606 16.0796 29.4026L17.5627 26.4878L15.6194 23.5729L4.26666 7.82224ZM16.0796 17.5385H12.3465L15.108 21.3228C15.3126 21.5785 15.7217 21.5785 15.9262 21.3228L17.1535 19.6352L17.6138 19.0215C17.6649 18.9704 17.6649 18.9193 17.7161 18.8681C18.0229 17.6408 18.2275 16.4135 16.8979 16.1067C16.949 16.2601 17.0001 16.4135 17.0001 16.5669C17.0513 17.1294 16.6422 17.5385 16.0796 17.5385ZM17.1535 21.4762L16.0796 23.0103L17.9718 25.7718L18.2275 25.2604L27.0233 7.82224L17.1535 21.4762Z" fill="white"/></svg>
