<svg xmlns="http://www.w3.org/2000/svg" width="36.132mm" height="36.132mm" viewBox="0 0 102.4214 102.4214"><defs><style>.a{fill:#143a3a;}.b{fill:#fff;}</style></defs><circle class="a" cx="51.2107" cy="51.2107" r="51.2107"/><path class="b" d="M54.257,31.3931c-1.16,3.4653-9.93,30.4822-11.3158,33.7081-1.046,2.5455-3.9317,9.1233-11.0891,10.6228a20.8853,20.8853,0,0,1-4.0575.3781,28.881,28.881,0,0,1-7.485-1.0712.7309.7309,0,0,1-.6932-.58L17.071,67.067a.8065.8065,0,0,1,.6931-.9451.3667.3667,0,0,1,.1132.0252,34.5445,34.5445,0,0,0,8.9974,1.613c3.377,0,6.5778-1.0208,7.6361-4.6247H29.08a1.4188,1.4188,0,0,1-1.613-1.0334l-10.7391-30.72a.4273.4273,0,0,1,.4033-.5683h8.37a3.2056,3.2056,0,0,1,3.1125,2.1926L36.2373,56.104H36.93l6.4642-22.9847A3.1081,3.1081,0,0,1,46.5071,30.7h7.2835A.5129.5129,0,0,1,54.257,31.3931Z"/><path class="b" d="M25.0417,62.2187,22.04,53.9061a1.873,1.873,0,0,0-1.8472-1.27h-7.389A2.6059,2.6059,0,0,0,10.3792,56.1c.6927,1.9627,1.0391,3.0018,1.7318,4.849a3.2285,3.2285,0,0,0,3.0017,2.1936h9.3517A.6312.6312,0,0,0,25.0417,62.2187Z"/><path class="b" d="M91.5626,35.4422c-.46-1.0476-2.1381-4.7249-7.9535-4.7249H81.4473l1.6678-4.9922H76.9117l-1.6356,4.9922H71.4478l1.6678-4.9922H66.9121l-1.6355,4.9922H58.7871a.794.794,0,0,0-.7483.5345L56.4353,36.073H60.28l-9.0325,27.11H48.5249l-1.8494,5.4944a.793.793,0,0,0,.7483,1.0369h6.8418l-1.6634,4.979h6.2034l1.6314-4.979h3.8281l-1.6633,4.979h6.2033l1.6314-4.979H71.84c.0781-.0032.1481-.0093.2243-.0132,0,0,.6956-.0291.6946-.0435a20.0418,20.0418,0,0,0,4.7466-.9909,17.5111,17.5111,0,0,0,5.57-2.8541A12.9322,12.9322,0,0,0,86.56,61.6863a11.1234,11.1234,0,0,0,1.3257-4.7251,7.4075,7.4075,0,0,0-.62-3.3994A7.5836,7.5836,0,0,0,85.33,51.06a10.7691,10.7691,0,0,0-2.6619-1.6143,16.8739,16.8739,0,0,0,5.74-2.9717,9.9721,9.9721,0,0,0,3.7629-7.6006A7.2619,7.2619,0,0,0,91.5626,35.4422ZM77.5693,57.9449c-.0108.0212-.0108.0317-.0214.0425a7.0754,7.0754,0,0,1-2.8648,3.9233,8.5412,8.5412,0,0,1-4.7891,1.3362H60.0617l3.6238-10.7862h9.9714A4.1443,4.1443,0,0,1,77.5693,57.9449ZM81.3322,41.76c0,.0107-.0107.0214-.0107.0322a7.091,7.091,0,0,1-7.1729,5.11H65.5349l3.2284-9.8137h9.2122A3.5493,3.5493,0,0,1,81.3322,41.76Z"/></svg>