<?xml version="1.0" encoding="UTF-8"?> <svg xmlns="http://www.w3.org/2000/svg" xmlns:xlink="http://www.w3.org/1999/xlink" width="36.132mm" height="36.132mm" viewBox="0 0 102.4214 102.4214"><defs><style>.k{fill:none;}.l{stroke:#fff;stroke-linejoin:round;stroke-width:1.44px;}.l,.m{fill:#fff;}.n{fill:#143a3a;}.o{clip-path:url(#g);}</style><clipPath id="g"><path id="h" class="k" d="m94.9864,11.6411v77.594h-60.3453v-9.9001c5.6751-1.589,8.7755-5.8517,11.5752-12.6871,1.0721-2.5097,5.4356-15.7264,9.9884-29.6241.6937-2.1312,8.1231-24.2812,8.4901-25.3826h30.2916Z"></path></clipPath></defs><g id="e"><circle class="n" cx="51.2107" cy="51.2107" r="51.2107"></circle><g><path class="m" d="m55.122,31.3936c-1.1605,3.4681-9.9379,30.5069-11.325,33.7354-1.0468,2.5475-3.9349,9.1306-11.0981,10.6313-1.3997.2774-2.7744.3784-4.0608.3784-3.5691,0-6.4698-.8071-7.4911-1.0721-.3405,0-.5804-.2269-.6937-.5801l-2.5475-7.3903c-.101-.4161.2648-.9459.6937-.9459.0379,0,.0754.0126.1133.0252,1.5133.4161,5.3472,1.6143,9.0047,1.6143,3.3798,0,6.5831-1.0216,7.6423-4.6284h-5.4353c-.9206,0-1.2738-.2269-1.6143-1.0342l-10.7478-30.7452c-.0972-.278.1092-.5687.4036-.5687h8.3767c1.3874,0,2.6611.807,3.115,2.1944l7.6299,23.1166h.6937l6.4695-23.0033c.3532-1.5007,1.6269-2.4213,3.115-2.4213h7.2894c.3405,0,.5804.3405.4668.6937Z"></path><path class="m" d="m25.8828,62.2438l-3.0042-8.3193c-.2311-.8088-1.0399-1.271-1.8487-1.271h-7.395c-1.7332,0-3.0042,1.7332-2.4265,3.4664.6933,1.9643,1.0399,3.0042,1.7332,4.8529.4622,1.271,1.6176,2.1954,3.0042,2.1954h9.3592c.4622,0,.8088-.4622.5777-.9244Z"></path></g></g><g id="f"><g class="o"><g><path class="l" d="m64.2892,67.4608c-6.3354,3.1325-15.0559,4.2003-10.9065-7.5846,1.8301-5.1977,10.3147-29.5454,12.2197-35.0717l8.3306-2.3944s-13.7099,36.711-14.1921,38.0545c-1.3357,3.7216.3272,4.4005,2.2855,3.688,1.3294-.4838,3.1692-1.1931,4.1037-1.5375,0,0-1.5088,4.7115-1.8409,4.8458Z"></path><path class="l" d="m89.0998,71.0137c-3.615,8.6689-14.0052,11.2391-22.1333,10.3978-3.9897-.3218-8.339-1.2812-11.4513-4.1643l2.8071-2.4814c3.0787,2.464,8.532,2.4653,12.4097,2.1509,5.6348-.7213,11.9184-4.7639,11.7841-11.5046-.121-6.0721-4.4549-8.2245-8.5673-8.833l-4.2402-.6053,1.8617-5.0937,11.9796-9.5121h-31.3437l2.2584-5.2214h39.4562l-1.5055,3.1075s-11.1575,8.9608-16.1403,12.3824c10.1673.1756,17.2143,8.704,12.8249,19.3774Z"></path></g></g></g></svg> 