<?xml version="1.0" encoding="UTF-8"?><svg xmlns="http://www.w3.org/2000/svg" width="142.5" height="142.5" viewBox="0 0 142.5 142.5"><defs><style>.c{fill:#0084ff;}.d{fill:#fdfdff;}.e{fill:#dfeffc;}</style></defs><g id="a"><circle class="c" cx="71.25" cy="71.25" r="71.25"/></g><g id="b"><path class="c" d="m72.8671,55.17c.0528-.0186.1056-.0373.1583-.0559-.0488-.0382-.0975-.0764-.1463-.1146-.1377-.342-.2401-.7039-.419-1.0228-1.039-1.851-2.0799-3.7013-3.1514-5.5337-1.2174-2.0819-2.4676-4.1446-3.7488-6.2916-1.228,0-2.4322.0016-3.6364-.0003-10.8281-.0167-21.6561-.0358-32.4842-.0456-.512-.0005-1.0565-.088-1.6095.2729,1.0212,1.7804,2.018,3.5049,3.0021,5.2368,2.3813,4.1909,4.7407,8.3944,7.1413,12.5742,1.1168,1.9446,2.3352,3.8307,3.4619,5.7698,3.6795,6.3331,7.3309,12.6825,11.0063,19.018,5.2211,9.0001,10.4555,17.9925,15.6798,26.9908.8297,1.4291,1.6294,2.8757,2.457,4.306.2135.3689.4804.7069.7701,1.1277.2293-.283.3508-.398.4309-.5368,2.2676-3.9291,4.5221-7.8658,6.8041-11.7866.3821-.6565.3642-1.2348-.0067-1.8666-.8218-1.3997-1.6202-2.8131-2.4355-4.2167-3.8048-6.5501-7.6095-13.1002-11.4192-19.6475-3.9771-6.835-7.9559-13.669-11.9442-20.4976-.6806-1.1654-1.4123-2.3009-2.1916-3.5658.424-.0213.7368-.0507,1.0496-.0506,6.622.0023,13.2439.0094,19.8659.0094.4553,0,.9105-.0476,1.3658-.0731Zm42.1328-13.0089c-1.1875,0-2.1323.001-3.0771-.0002-3.7904-.0049-7.5808-.0063-11.3712-.0202-.6085-.0022-1.085.0605-1.4447.7-1.9587,3.4824-3.9668,6.937-5.9642,10.3976-3.2043,5.5515-6.4096,11.1025-9.6277,16.646-.2977.5128-.6906.9703-1.0855,1.5174-.3997-.7873-.6852-1.4191-1.0299-2.0166-1.3935-2.4155-2.8358-4.8036-4.1917-7.2398-.4023-.7228-.8593-.9604-1.6751-.9528-4.3732.0405-8.7469.0156-13.1205.0178-.3223.0002-.6447.0363-1.0188.0589.0266.2685-.017.5052.0753.6617,1.8522,3.1419,3.7393,6.2634,5.5804,9.4118,3.0403,5.1992,6.0552,10.4134,9.0764,15.6237,1.8373,3.1685,3.6622,6.3443,5.5042,9.5101.2754.4733.6145.9094,1.0475,1.5435,10.8124-18.7317,21.5761-37.1857,32.3225-55.8589Z"/><path class="d" d="m72.8671,55.17c-.4553.0255-.9105.0731-1.3658.0731-6.622,0-13.2439-.0072-19.8659-.0094-.3128-.0001-.6256.0294-1.0496.0506.7793,1.2649,1.511,2.4005,2.1916,3.5658,3.9882,6.8285,7.967,13.6626,11.9442,20.4976,3.8097,6.5472,7.6144,13.0974,11.4192,19.6475.8153,1.4036,1.6137,2.817,2.4355,4.2167.3709.6318.3888,1.2101.0067,1.8666-2.282,3.9207-4.5365,7.8575-6.8041,11.7866-.0801.1388-.2016.2538-.4309.5368-.2896-.4208-.5566-.7588-.7701-1.1277-.8276-1.4303-1.6273-2.8769-2.457-4.306-5.2242-8.9983-10.4587-17.9906-15.6798-26.9908-3.6753-6.3355-7.3268-12.6849-11.0063-19.018-1.1266-1.9392-2.3451-3.8252-3.4619-5.7698-2.4006-4.1798-4.76-8.3833-7.1413-12.5742-.984-1.7318-1.9809-3.4563-3.0021-5.2368.553-.3609,1.0975-.2733,1.6095-.2729,10.8281.0098,21.6561.0289,32.4842.0456,1.2042.0019,2.4084.0003,3.6364.0003,1.2812,2.147,2.5314,4.2097,3.7488,6.2916,1.0715,1.8323,2.1124,3.6827,3.1514,5.5337.179.3189.2813.6808.419,1.0228-.0191.0558-.0232.1126-.012.1705Z"/><path class="d" d="m114.9999,42.1612c-10.7464,18.6731-21.5101,37.1272-32.3225,55.8589-.433-.634-.7721-1.0702-1.0475-1.5435-1.842-3.1658-3.6669-6.3415-5.5042-9.5101-3.0213-5.2104-6.0361-10.4245-9.0764-15.6237-1.8411-3.1484-3.7282-6.2698-5.5804-9.4118-.0923-.1566-.0488-.3932-.0753-.6617.3741-.0225.6964-.0587,1.0188-.0589,4.3736-.0023,8.7473.0227,13.1205-.0178.8158-.0075,1.2728.23,1.6751.9528,1.3559,2.4362,2.7982,4.8243,4.1917,7.2398.3447.5975.6302,1.2293,1.0299,2.0166.3949-.5471.7878-1.0046,1.0855-1.5174,3.2181-5.5435,6.4233-11.0945,9.6277-16.646,1.9974-3.4605,4.0055-6.9152,5.9642-10.3976.3597-.6395.8362-.7023,1.4447-.7,3.7904.014,7.5808.0153,11.3712.0202.9448.0012,1.8896.0002,3.0771.0002Z"/><path class="e" d="m72.8671,55.17c-.0111-.0579-.0071-.1147.012-.1705.0488.0382.0975.0764.1463.1146-.0528.0186-.1056.0373-.1583.0559Z"/></g></svg>