<?xml version="1.0" encoding="UTF-8"?><svg xmlns="http://www.w3.org/2000/svg" width="102.4214" height="102.4214" xmlns:xlink="http://www.w3.org/1999/xlink" viewBox="0 0 102.4214 102.4214"><defs><style>.m{fill:none;}.m,.n,.o{stroke-width:0px;}.p{clip-path:url(#f);}.n{fill:#f44b9d;}.o,.q{fill:#fff;}.q{stroke:#fff;stroke-miterlimit:10;stroke-width:1.25px;}</style><clipPath id="f"><path id="g" class="m" d="m94.9864,11.6411v77.594h-60.3453v-9.9001c5.6751-1.589,8.7755-5.8517,11.5752-12.6871,1.0721-2.5097,5.4356-15.7264,9.9884-29.6241.6937-2.1312,8.1231-24.2812,8.4901-25.3826h30.2916Z"/></clipPath></defs><g id="e"><circle class="n" cx="51.2107" cy="51.2107" r="51.2107"/><path class="o" d="m55.122,31.3936c-1.1605,3.4681-9.9379,30.5069-11.325,33.7354-1.0468,2.5475-3.9349,9.1306-11.0981,10.6313-1.3997.2774-2.7744.3784-4.0608.3784-3.5691,0-6.4698-.8071-7.4911-1.0721-.3405,0-.5804-.2269-.6937-.5801l-2.5475-7.3903c-.101-.4161.2648-.9459.6937-.9459.0379,0,.0754.0126.1133.0252,1.5133.4161,5.3472,1.6143,9.0047,1.6143,3.3798,0,6.5831-1.0216,7.6423-4.6284h-5.4353c-.9206,0-1.2738-.2269-1.6143-1.0342l-10.7478-30.7452c-.0972-.278.1092-.5687.4036-.5687h8.3767c1.3874,0,2.6611.807,3.115,2.1944l7.6299,23.1166h.6937l6.4695-23.0033c.3532-1.5007,1.6269-2.4213,3.115-2.4213h7.2894c.3405,0,.5804.3405.4668.6937Z"/><path class="o" d="m25.8828,62.2438l-3.0042-8.3193c-.2311-.8088-1.0399-1.271-1.8487-1.271h-7.395c-1.7332,0-3.0042,1.7332-2.4265,3.4664.6933,1.9643,1.0399,3.0042,1.7332,4.8529.4622,1.271,1.6176,2.1954,3.0042,2.1954h9.3592c.4622,0,.8088-.4622.5777-.9244Z"/><g class="p"><path class="o" d="m94.5311,35.7643c-.1318-.2109-.3623-.3379-.6104-.3379h-24.0786c2.5879-6.9326,4.7122-12.6206,4.7661-12.7646.0947-.2549.0381-.541-.1465-.7412-.1836-.1992-.4639-.2773-.7275-.2031l-8.3311,2.3945c-.2256.0654-.4053.2363-.4814.458-.646,1.873-2.0854,6.0176-3.7693,10.8564h-6.6877c-.2871,0-.5469.1699-.6611.4336l-2.2588,5.2217c-.0957.2227-.0742.4785.0596.6816.1328.2021.3594.3242.6016.3242h6.627c-2.5842,7.4177-5.1748,14.8398-6.1289,17.5498-1.6152,4.585-1.4795,7.7549.4023,9.4229,1.0049.8906,2.334,1.2168,3.7412,1.2168,3.0293,0,6.4238-1.5117,7.7363-2.1592.3232-.1328.6621-.3818,2.2314-5.2832.084-.2627.0107-.5498-.1875-.7402-.2002-.1895-.4912-.249-.7471-.1553-.377.1396-.9004.3379-1.4795.5566-.8545.3232-1.8281.6924-2.6211.9805-.7266.2646-1.332.2773-1.5801.0303-.1357-.1357-.5215-.7363.2188-2.7988.2314-.644,3.5615-9.5742,6.9373-18.6201h14.1292l-10.3623,8.2285c-.1045.082-.1836.1914-.2285.3164l-1.8613,5.0938c-.0752.2041-.0537.4307.0576.6172.1123.1855.3018.3115.5166.3428l4.2363.6045c5.1846.7676,7.8604,3.5049,7.9531,8.1357.1211,6.1211-5.5205,10.0547-11.123,10.7725-5.6689.458-9.6738-.2129-11.9014-1.9961-.2734-.2188-.6641-.208-.9268.0234l-2.8066,2.4814c-.1523.1348-.2412.3271-.2432.5303-.0029.2041.0811.3984.2305.5371,2.7012,2.502,6.5879,3.9268,11.8662,4.3525.9893.1025,2.001.1553,3.0215.1553,8.0146,0,16.6162-3.2363,19.8506-10.9922,0-.001,0-.002.001-.0039,2.082-5.0625,1.8115-10.0059-.7617-13.9189-2.2607-3.4395-6.1611-5.7129-10.6777-6.3018,5.4082-3.9229,14.4395-11.1699,14.54-11.251.083-.0674.1504-.1514.1963-.2471l1.5059-3.1074c.1084-.2236.0947-.4863-.0371-.6963Z"/></g></g><g id="l"><path class="q" d="m56.1337,25.5255h-9.1797l.7012-2.1553,5.0566-2.9639c.4395-.2539.8184-.4912,1.1367-.7129.3184-.2227.5898-.4336.8125-.6348.2227-.2002.4043-.4014.543-.6016.1387-.2012.2402-.4072.3047-.6182.0215-.0537.0371-.1133.0547-.1826.0156-.0693.0293-.1455.041-.2295.0449-.3281-.0508-.5967-.2832-.8086-.2344-.2109-.6035-.3164-1.1035-.3164-.3066,0-.5859.042-.8359.127-.25.084-.4805.2002-.6895.3477-.2109.1484-.4004.3174-.5664.5068-.168.1904-.3145.3867-.4395.5879l-2.2422-.7939c.2754-.3906.5859-.7568.9336-1.1006s.7402-.6426,1.1797-.8955c.4395-.2539.9199-.4521,1.4414-.5938.5215-.1436,1.0957-.2148,1.7188-.2148,1.334,0,2.334.2832,2.9961.8477.6621.5654.9277,1.3135.8008,2.2432-.0664.4756-.2207.9033-.4629,1.2832-.2441.3809-.5625.7432-.959,1.0859-.3965.3438-.8691.6846-1.418,1.0215-.5488.3389-1.1621.7041-1.8418,1.0947l-2.9902,1.7109h5.9492l-.6582,1.9658Z"/></g></svg>